<svg width="117" height="24" viewBox="0 0 117 24" fill="none" xmlns="http://www.w3.org/2000/svg">
<path d="M13.4228 8.31094L12.6605 10.1578C13.3763 10.4578 13.8783 11.1703 13.8783 12.0047C13.8783 12.8344 13.3763 13.5469 12.6605 13.8516L13.4228 15.6984C14.8543 15.0938 15.8629 13.6688 15.8629 12.0047C15.8675 10.3359 14.8589 8.91094 13.4228 8.31094ZM0 6.99844V16.9969H3.96455L10.9083 24V0L3.9692 6.99844H0Z" fill="#333333"/>
<path fill-rule="evenodd" clip-rule="evenodd" d="M115.019 10L27.8486 10C26.7201 10 25.7798 11.0436 25.7798 12.4351C25.7798 13.8266 26.7201 14.8702 27.8486 14.8702L114.925 14.8702C116.053 14.8702 116.994 13.8266 116.994 12.4351C117.088 11.0436 116.147 10 115.019 10Z" fill="#E0E0E0"/>
<path fill-rule="evenodd" clip-rule="evenodd" d="M78.9081 10L27.8412 10C26.7168 10 25.7798 11.0436 25.7798 12.4351C25.7798 13.8266 26.7168 14.8702 27.8412 14.8702L78.9081 14.8702L78.9081 10Z" fill="#4F4F4F"/>
</svg>
