<svg width="31" height="31" viewBox="0 0 31 31" fill="none" xmlns="http://www.w3.org/2000/svg">
<path d="M15.0357 0C6.74935 0 0 6.74935 0 15.0357C0 23.322 6.74935 30.0714 15.0357 30.0714C23.322 30.0714 30.0714 23.322 30.0714 15.0357C30.0714 6.74935 23.322 0 15.0357 0ZM15.0357 26.7301C8.58705 26.7301 3.34126 21.4843 3.34126 15.0357C3.34126 8.58705 8.58705 3.34126 15.0357 3.34126C21.4843 3.34126 26.7301 8.58705 26.7301 15.0357C26.7301 21.4843 21.4843 26.7301 15.0357 26.7301Z" fill="black"/>
<path d="M16.7061 7.71832H13.3649V14.4008H8.78735L15.0355 22.353L21.3171 14.4008H16.7061V7.71832Z" fill="black"/>
</svg>
