<svg width="233" height="23" viewBox="0 0 233 23" fill="none" xmlns="http://www.w3.org/2000/svg">
<path d="M6.97596 11.208L7.26643 13.1868L7.28296 9.2317L6.97596 11.208ZM22.72 11.208L22.407 9.23263L22.4371 13.1879L22.72 11.208ZM29.04 7.2C29.04 6.53878 28.9612 5.65598 28.5225 4.74174C28.0723 3.80355 27.3205 2.99152 26.2319 2.34699C24.166 1.12396 20.7904 0.447999 15.376 0.447999V4.448C20.6415 4.448 23.0979 5.14003 24.1941 5.78901C24.6864 6.08048 24.8481 6.33045 24.9162 6.47226C24.9957 6.63802 25.04 6.85322 25.04 7.2H29.04ZM15.376 0.447999H14.344V4.448H15.376V0.447999ZM14.344 0.447999C8.91605 0.447999 5.52746 1.12455 3.45019 2.3428C2.35722 2.98379 1.59765 3.79184 1.13969 4.72858C0.692279 5.64374 0.607961 6.5296 0.607961 7.2H4.60796C4.60796 6.86239 4.65264 6.65026 4.73323 6.48542C4.80327 6.34216 4.9707 6.08821 5.47373 5.7932C6.58846 5.13945 9.06788 4.448 14.344 4.448V0.447999ZM0.607961 7.2V7.392H4.60796V7.2H0.607961ZM0.607961 7.392C0.607961 10.9801 3.8726 12.7499 6.66896 13.1843L7.28296 9.2317C6.30099 9.07916 5.5755 8.74955 5.1401 8.38921C4.74192 8.05968 4.60796 7.73791 4.60796 7.392H0.607961ZM6.6855 9.2292C5.11319 9.46 3.56255 10.0367 2.35839 11.0143C1.1225 12.0176 0.223961 13.4832 0.223961 15.312H4.22396C4.22396 14.9088 4.39342 14.5144 4.87953 14.1197C5.39737 13.6993 6.22273 13.34 7.26643 13.1868L6.6855 9.2292ZM0.223961 15.312V15.528H4.22396V15.312H0.223961ZM0.223961 15.528C0.223961 16.2456 0.299142 17.1839 0.718403 18.1567C1.15053 19.1594 1.89145 20.0686 3.01958 20.8091C5.1693 22.2199 8.69737 23 14.344 23V19C8.87855 19 6.34662 18.2081 5.21434 17.4649C4.70147 17.1283 4.49589 16.8151 4.39177 16.5735C4.27478 16.3021 4.22396 15.9744 4.22396 15.528H0.223961ZM14.344 23H15.352V19H14.344V23ZM15.352 23C20.934 23 24.4485 22.2176 26.6048 20.8127C27.7323 20.078 28.483 19.1764 28.9273 18.1789C29.3603 17.2067 29.448 16.2651 29.448 15.528H25.448C25.448 15.9549 25.3946 16.2793 25.2734 16.5513C25.1635 16.7981 24.9466 17.119 24.4212 17.4613C23.2714 18.2104 20.7379 19 15.352 19V23ZM29.448 15.528V15.312H25.448V15.528H29.448ZM29.448 15.312C29.448 13.499 28.609 12.0255 27.3593 11.0018C26.1545 10.0149 24.5963 9.45574 23.0028 9.2281L22.4371 13.1879C23.5316 13.3443 24.3374 13.6971 24.8246 14.0962C25.2669 14.4585 25.448 14.845 25.448 15.312H29.448ZM23.0329 13.1834C25.7889 12.7468 29.04 10.9706 29.04 7.392H25.04C25.04 7.73931 24.9046 8.06334 24.508 8.39404C24.0758 8.7545 23.3611 9.0815 22.407 9.23263L23.0329 13.1834ZM29.04 7.392V7.2H25.04V7.392H29.04ZM16.592 7.992C16.592 7.93088 16.6029 7.68432 16.7718 7.41141C16.9409 7.13826 17.1385 7.04703 17.1361 7.04813C17.1153 7.05752 16.9573 7.11984 16.5532 7.17426C16.1601 7.22719 15.6025 7.264 14.824 7.264V11.264C16.524 11.264 17.8394 11.1193 18.7819 10.6939C19.3044 10.458 19.8185 10.0892 20.1729 9.51683C20.5271 8.94468 20.592 8.37712 20.592 7.992H16.592ZM14.824 7.264C14.0519 7.264 13.4993 7.22722 13.1104 7.1745C12.7104 7.12028 12.5555 7.05839 12.5368 7.04991C12.5367 7.04989 12.7337 7.14208 12.9016 7.4145C13.0691 7.6861 13.08 7.931 13.08 7.992H9.07996C9.07996 8.377 9.14482 8.9429 9.49677 9.51375C9.84923 10.0854 10.3612 10.4551 10.8831 10.6921C11.8241 11.1193 13.135 11.264 14.824 11.264V7.264ZM13.08 7.992V7.92H9.07996V7.992H13.08ZM13.08 7.92C13.08 7.98583 13.0694 8.25266 12.8882 8.54457C12.708 8.83472 12.4959 8.93134 12.4952 8.93162C12.4952 8.93162 12.506 8.92684 12.5302 8.91876C12.5543 8.9107 12.5897 8.90002 12.6383 8.88784C12.7369 8.86314 12.8784 8.83508 13.0739 8.80918C13.4689 8.75687 14.0327 8.72 14.824 8.72V4.72C13.1015 4.72 11.7969 4.86471 10.8707 5.27638C10.3571 5.50465 9.84344 5.86528 9.49002 6.43443C9.13551 7.00533 9.07996 7.56616 9.07996 7.92H13.08ZM14.824 8.72C15.6019 8.72 16.1615 8.75674 16.5575 8.80918C16.9638 8.863 17.1314 8.92505 17.1623 8.93847C17.1816 8.94687 16.9853 8.86556 16.8062 8.5958C16.6177 8.31194 16.592 8.03676 16.592 7.92H20.592C20.592 7.51523 20.5122 6.94606 20.1385 6.3832C19.7741 5.83444 19.2613 5.48912 18.7556 5.26953C17.8288 4.867 16.5319 4.72 14.824 4.72V8.72ZM16.592 7.92V7.992H20.592V7.92H16.592ZM17.072 14.952C17.072 14.8009 17.1147 14.5511 17.2834 14.3149C17.4358 14.1014 17.5783 14.0586 17.5 14.0922C17.2768 14.188 16.5576 14.368 14.824 14.368V18.368C16.6663 18.368 18.0712 18.2 19.0779 17.7678C19.6146 17.5374 20.1487 17.1856 20.5388 16.6391C20.9452 16.0699 21.072 15.463 21.072 14.952H17.072ZM14.824 14.368C13.1013 14.368 12.3999 14.1876 12.1907 14.0964C12.1217 14.0664 12.2685 14.1142 12.4206 14.3321C12.5865 14.5697 12.624 14.8146 12.624 14.952H8.62396C8.62396 15.4494 8.74245 16.0513 9.14086 16.6219C9.52547 17.1728 10.0562 17.5296 10.5932 17.7636C11.596 18.2004 12.9946 18.368 14.824 18.368V14.368ZM12.624 14.952V14.88H8.62396V14.952H12.624ZM12.624 14.88C12.624 15.0051 12.5904 15.2695 12.4035 15.5305C12.2334 15.7682 12.0661 15.8193 12.1384 15.7898C12.2175 15.7576 12.4413 15.6872 12.9057 15.6295C13.3599 15.5731 13.9821 15.536 14.824 15.536V11.536C13.0011 11.536 11.615 11.6833 10.6275 12.0862C10.0968 12.3027 9.55006 12.6448 9.15116 13.202C8.7355 13.7825 8.62396 14.3949 8.62396 14.88H12.624ZM14.824 15.536C16.5732 15.536 17.3079 15.6996 17.5462 15.795C17.6328 15.8296 17.4754 15.787 17.3066 15.5602C17.116 15.3042 17.072 15.0328 17.072 14.88H21.072C21.072 14.3672 20.9439 13.7478 20.5156 13.1723C20.1091 12.626 19.5601 12.2924 19.0317 12.081C18.0401 11.6844 16.6507 11.536 14.824 11.536V15.536ZM17.072 14.88V14.952H21.072V14.88H17.072ZM61.1595 11.328C61.1595 9.3302 60.6858 6.49286 58.3234 4.18066C55.9747 1.88191 52.1109 0.447999 46.1035 0.447999V4.448C51.544 4.448 54.2083 5.75009 55.5255 7.03934C56.8291 8.31514 57.1595 9.91779 57.1595 11.328H61.1595ZM46.1035 0.447999H44.9995V4.448H46.1035V0.447999ZM44.9995 0.447999C38.971 0.447999 35.104 1.88054 32.7592 4.18296C30.4002 6.49939 29.9435 9.34017 29.9435 11.328H33.9435C33.9435 9.90783 34.2668 8.30861 35.5617 7.03704C36.871 5.75146 39.5319 4.448 44.9995 4.448V0.447999ZM29.9435 11.328V12.048H33.9435V11.328H29.9435ZM29.9435 12.048C29.9435 14.0147 30.4014 16.8606 32.7521 19.192C35.0941 21.5148 38.9617 22.976 44.9995 22.976V18.976C39.5412 18.976 36.8808 17.6532 35.5688 16.352C34.2655 15.0594 33.9435 13.4413 33.9435 12.048H29.9435ZM44.9995 22.976H46.1035V18.976H44.9995V22.976ZM46.1035 22.976C52.1202 22.976 55.9845 21.5135 58.3305 19.1943C60.6846 16.8672 61.1595 14.0246 61.1595 12.048H57.1595C57.1595 13.4314 56.8303 15.0528 55.5184 16.3497C54.1984 17.6545 51.5348 18.976 46.1035 18.976V22.976ZM61.1595 12.048V11.328H57.1595V12.048H61.1595ZM48.8075 11.784C48.8075 12.1828 48.6776 12.5828 48.3554 12.8904C48.0379 13.1935 47.2801 13.648 45.5515 13.648V17.648C47.9748 17.648 49.8451 16.9985 51.1175 15.7836C52.3853 14.5732 52.8075 13.0412 52.8075 11.784H48.8075ZM45.5515 13.648C43.8286 13.648 43.0722 13.1908 42.7532 12.8839C42.4267 12.5696 42.2955 12.1606 42.2955 11.76H38.2955C38.2955 13.0154 38.7162 14.5504 39.9797 15.7661C41.2507 16.9892 43.1223 17.648 45.5515 17.648V13.648ZM42.2955 11.76V11.472H38.2955V11.76H42.2955ZM42.2955 11.472C42.2955 11.0513 42.4195 10.7051 42.6995 10.4454C42.9933 10.1729 43.7476 9.728 45.5515 9.728V5.728C43.1313 5.728 41.2576 6.32711 39.9794 7.51261C38.6875 8.71087 38.2955 10.2367 38.2955 11.472H42.2955ZM45.5515 9.728C47.2936 9.728 48.0619 10.1664 48.3785 10.4556C48.6851 10.7357 48.8075 11.0929 48.8075 11.472H52.8075C52.8075 10.1951 52.3658 8.6803 51.0764 7.50239C49.797 6.33364 47.9373 5.728 45.5515 5.728V9.728ZM48.8075 11.472V11.784H52.8075V11.472H48.8075ZM68.8046 9.816V11.816H69.7339L70.3332 11.1057L68.8046 9.816ZM70.3886 2.784H72.3886V0.783999H70.3886V2.784ZM63.0926 2.784V0.783999H61.0926V2.784H63.0926ZM63.0926 7.104H61.0926V9.104H63.0926V7.104ZM66.0686 7.104L68.0447 7.41275L68.4054 5.104H66.0686V7.104ZM65.0126 9.816L63.2347 8.90009L61.7326 11.816H65.0126V9.816ZM70.3332 11.1057C70.7624 10.5971 71.2489 9.87694 71.6368 9.08267C72.0108 8.31686 72.3886 7.28957 72.3886 6.216H68.3886C68.3886 6.41443 68.2985 6.80314 68.0425 7.32733C67.8004 7.82306 67.4949 8.26686 67.2761 8.52626L70.3332 11.1057ZM72.3886 6.216V2.784H68.3886V6.216H72.3886ZM70.3886 0.783999H63.0926V4.784H70.3886V0.783999ZM61.0926 2.784V7.104H65.0926V2.784H61.0926ZM63.0926 9.104H66.0686V5.104H63.0926V9.104ZM64.0926 6.79525C64.0294 7.19983 63.6564 8.08143 63.2347 8.90009L66.7906 10.7319C67.1849 9.96656 67.8679 8.54417 68.0447 7.41275L64.0926 6.79525ZM65.0126 11.816H68.8046V7.816H65.0126V11.816ZM87.6203 12.216L87.5446 14.2146L87.5525 14.2149L87.6203 12.216ZM84.4523 12.096L84.369 14.0943L84.3766 14.0946L84.4523 12.096ZM86.2763 11.496H84.2763V13.496H86.2763V11.496ZM93.9323 11.496V13.496H95.9323V11.496H93.9323ZM81.0683 15.576L81.144 13.5774L81.142 13.5774L81.0683 15.576ZM84.2363 15.696L84.3195 13.6977L84.312 13.6974L84.2363 15.696ZM82.3403 16.248H84.3403V14.248H82.3403V16.248ZM74.4923 16.248V14.248H72.4923V16.248H74.4923ZM85.1243 23C89.1988 23 92.0028 22.4856 93.8295 21.3732C94.7959 20.7847 95.4951 20.0252 95.9287 19.121C96.3509 18.2407 96.4603 17.3507 96.4603 16.584H92.4603C92.4603 16.9813 92.4017 17.2253 92.322 17.3913C92.2539 17.5333 92.1176 17.7323 91.749 17.9568C90.9057 18.4704 89.0417 19 85.1243 19V23ZM96.4603 16.584V16.392H92.4603V16.584H96.4603ZM96.4603 16.392C96.4603 14.7845 96.0701 13.0015 94.3086 11.7727C92.7939 10.7161 90.5646 10.3147 87.688 10.2171L87.5525 14.2149C90.3399 14.3093 91.5306 14.7119 92.02 15.0533C92.2625 15.2225 92.4603 15.4315 92.4603 16.392H96.4603ZM87.696 10.2174L84.528 10.0974L84.3766 14.0946L87.5446 14.2146L87.696 10.2174ZM84.5355 10.0977C84.1587 10.082 83.906 10.0536 83.744 10.0251C83.573 9.99495 83.5652 9.97522 83.6406 10.0122C83.7306 10.0563 83.9566 10.1915 84.1413 10.4857C84.3301 10.7865 84.3643 11.0752 84.3643 11.232H80.3643C80.3643 11.6168 80.4434 12.1185 80.7537 12.6128C81.06 13.1005 81.4839 13.4097 81.88 13.6038C82.5843 13.9491 83.4662 14.0566 84.369 14.0943L84.5355 10.0977ZM84.3643 11.232V11.208H80.3643V11.232H84.3643ZM84.3643 11.208C84.3643 11.2954 84.3514 11.5706 84.1717 11.883C83.981 12.2143 83.7219 12.3831 83.5766 12.4519C83.4597 12.5072 83.4265 12.4944 83.5737 12.4745C83.7093 12.4562 83.9339 12.44 84.2843 12.44V8.44C83.4667 8.44 82.5849 8.49597 81.8659 8.83613C81.4416 9.03687 81.004 9.36769 80.7046 9.88804C80.4161 10.3894 80.3643 10.8806 80.3643 11.208H84.3643ZM84.2843 12.44H84.3323V8.44H84.2843V12.44ZM84.3323 12.44C84.6534 12.44 84.8155 12.4723 84.8694 12.4867C84.9191 12.5 84.8291 12.4849 84.6933 12.3723C84.5458 12.2499 84.4232 12.0775 84.3499 11.882C84.2828 11.7035 84.2763 11.5582 84.2763 11.496H88.2763C88.2763 10.9765 88.1351 10.0302 87.2472 9.29369C86.4602 8.64088 85.4162 8.44 84.3323 8.44V12.44ZM86.2763 13.496H93.9323V9.496H86.2763V13.496ZM95.9323 11.496V11.304H91.9323V11.496H95.9323ZM95.9323 11.304C95.9323 10.5309 95.7865 9.66858 95.3214 8.83434C94.8523 7.99277 94.135 7.31745 93.2112 6.80449C91.4501 5.82656 88.8113 5.368 85.0763 5.368V9.368C88.6372 9.368 90.4264 9.83344 91.2693 10.3015C91.6476 10.5115 91.7762 10.6897 91.8276 10.7819C91.8831 10.8814 91.9323 11.0331 91.9323 11.304H95.9323ZM85.0763 5.368H83.4683V9.368H85.0763V5.368ZM83.4683 5.368C79.8006 5.368 77.1761 5.78606 75.4174 6.74683C74.4879 7.25461 73.7621 7.93429 73.2897 8.79748C72.8244 9.64784 72.6843 10.5318 72.6843 11.328H76.6843C76.6843 10.9962 76.7421 10.8212 76.7988 10.7175C76.8485 10.6267 76.9686 10.4574 77.3351 10.2572C78.1684 9.80194 79.9359 9.368 83.4683 9.368V5.368ZM72.6843 11.328V11.496H76.6843V11.328H72.6843ZM72.6843 11.496C72.6843 12.918 73.1365 14.5436 74.68 15.7686C76.1112 16.9045 78.2121 17.4721 80.9946 17.5746L81.142 13.5774C78.7164 13.4879 77.6254 12.9995 77.1666 12.6354C76.82 12.3604 76.6843 12.042 76.6843 11.496H72.6843ZM80.9926 17.5746L84.1606 17.6946L84.312 13.6974L81.144 13.5774L80.9926 17.5746ZM84.153 17.6943C84.5362 17.7102 84.788 17.7377 84.9472 17.7655C85.117 17.7952 85.1037 17.8124 85.0061 17.7617C84.8792 17.6958 84.6509 17.5345 84.4852 17.2308C84.3313 16.9486 84.3243 16.7107 84.3243 16.656H88.3243C88.3243 16.3133 88.2722 15.8204 87.9968 15.3154C87.7097 14.789 87.2834 14.4372 86.8504 14.2123C86.1146 13.8299 85.1911 13.7341 84.3195 13.6977L84.153 17.6943ZM84.3243 16.656V16.68H88.3243V16.656H84.3243ZM84.3243 16.68C84.3243 16.5498 84.3504 16.3364 84.4737 16.1042C84.6011 15.8644 84.7731 15.7162 84.8979 15.6403C85.0065 15.5742 85.0498 15.5799 84.9532 15.5991C84.8598 15.6176 84.6795 15.64 84.3803 15.64V19.64C85.2827 19.64 86.2145 19.5213 86.9766 19.0577C87.9249 18.4809 88.3243 17.556 88.3243 16.68H84.3243ZM84.3803 15.64H84.3323V19.64H84.3803V15.64ZM84.3323 15.64C84.0752 15.64 83.964 15.606 83.949 15.6009C83.9428 15.5987 84.0177 15.625 84.1115 15.7188C84.3113 15.9187 84.3403 16.1482 84.3403 16.248H80.3403C80.3403 16.8518 80.5132 17.7773 81.2831 18.5472C82.0625 19.3267 83.1466 19.64 84.3323 19.64V15.64ZM82.3403 14.248H74.4923V18.248H82.3403V14.248ZM72.4923 16.248V16.416H76.4923V16.248H72.4923ZM72.4923 16.416C72.4923 17.6851 72.8738 19.5215 74.7573 20.9433C76.5049 22.2624 79.2664 23 83.4443 23V19C79.6061 19 77.8917 18.2976 77.1672 17.7507C76.5788 17.3065 76.4923 16.8509 76.4923 16.416H72.4923ZM83.4443 23H85.1243V19H83.4443V23ZM132.87 2.784H134.87V0.783999H132.87V2.784ZM124.758 2.784V0.783999H122.758V2.784H124.758ZM117.534 12.36L119.521 12.1391L119.324 10.36H117.534V12.36ZM109.758 12.36V10.36H107.758V12.36H109.758ZM121.782 22.904C127.161 22.904 130.615 21.4181 132.643 18.944C134.612 16.5429 134.87 13.6346 134.87 11.64H130.87C130.87 13.3894 130.612 15.1131 129.55 16.408C128.548 17.6299 126.459 18.904 121.782 18.904V22.904ZM134.87 11.64V2.784H130.87V11.64H134.87ZM132.87 0.783999H124.758V4.784H132.87V0.783999ZM122.758 2.784V11.496H126.758V2.784H122.758ZM122.758 11.496C122.758 12.204 122.607 12.5597 122.481 12.714C122.42 12.7893 122.172 13.072 121.182 13.072V17.072C123.023 17.072 124.564 16.4907 125.582 15.24C126.537 14.0683 126.758 12.636 126.758 11.496H122.758ZM121.182 13.072H121.062V17.072H121.182V13.072ZM121.062 13.072C120.453 13.072 120.106 12.9755 119.927 12.8993C119.762 12.8289 119.703 12.7612 119.678 12.73C119.596 12.6246 119.559 12.4762 119.521 12.1391L115.546 12.5809C115.58 12.8918 115.675 14.0994 116.523 15.188C117.456 16.3865 118.975 17.072 121.062 17.072V13.072ZM117.534 10.36H109.758V14.36H117.534V10.36ZM107.758 12.36V12.528H111.758V12.36H107.758ZM107.758 12.528C107.758 14.0786 107.987 16.7356 109.823 19.0149C111.724 21.3736 114.989 22.904 120.15 22.904V18.904C115.782 18.904 113.851 17.6384 112.938 16.5051C111.961 15.2924 111.758 13.7614 111.758 12.528H107.758ZM120.15 22.904H121.782V18.904H120.15V22.904ZM151.895 13.248V15.248H155.024L153.71 12.4079L151.895 13.248ZM146.855 13.248L145.034 12.421L143.75 15.248H146.855V13.248ZM149.351 7.752L151.166 6.91187L149.333 2.9534L147.53 6.92499L149.351 7.752ZM155.303 20.64L153.483 21.4703L154.017 22.64H155.303V20.64ZM164.279 20.64V22.64H167.55L166.059 19.7284L164.279 20.64ZM155.135 2.784L156.915 1.87239L156.357 0.783999H155.135V2.784ZM143.951 2.784V0.783999H142.694L142.148 1.9168L143.951 2.784ZM135.359 20.64L133.556 19.7728L132.177 22.64H135.359V20.64ZM143.543 20.64V22.64H144.84L145.369 21.4556L143.543 20.64ZM144.647 18.168V16.168H143.35L142.821 17.3524L144.647 18.168ZM154.175 18.168L155.994 17.3377L155.46 16.168H154.175V18.168ZM151.895 11.248H146.855V15.248H151.895V11.248ZM148.676 14.075L151.172 8.57901L147.53 6.92499L145.034 12.421L148.676 14.075ZM147.536 8.59213L150.08 14.0881L153.71 12.4079L151.166 6.91187L147.536 8.59213ZM155.303 22.64H164.279V18.64H155.303V22.64ZM166.059 19.7284L156.915 1.87239L153.355 3.69561L162.499 21.5516L166.059 19.7284ZM155.135 0.783999H143.951V4.784H155.135V0.783999ZM142.148 1.9168L133.556 19.7728L137.161 21.5072L145.753 3.65119L142.148 1.9168ZM135.359 22.64H143.543V18.64H135.359V22.64ZM145.369 21.4556L146.473 18.9836L142.821 17.3524L141.717 19.8244L145.369 21.4556ZM144.647 20.168H154.175V16.168H144.647V20.168ZM152.355 18.9983L153.483 21.4703L157.122 19.8097L155.994 17.3377L152.355 18.9983ZM168.667 20.64H166.667V22.64H168.667V20.64ZM176.635 20.64V22.64H178.635V20.64H176.635ZM176.635 10.776L178.387 9.81233L174.635 10.776H176.635ZM182.059 20.64L180.306 21.6037L180.876 22.64H182.059V20.64ZM186.019 20.64V22.64H187.199L187.769 21.6069L186.019 20.64ZM191.467 10.776H193.467L189.716 9.80906L191.467 10.776ZM191.467 20.64H189.467V22.64H191.467V20.64ZM199.507 20.64V22.64H201.507V20.64H199.507ZM199.507 2.784H201.507V0.783999H199.507V2.784ZM189.163 2.784V0.783999H187.983L187.412 1.81634L189.163 2.784ZM184.267 11.64L182.506 12.5893L184.245 15.8131L186.017 12.6077L184.267 11.64ZM179.491 2.784L181.251 1.83466L180.684 0.783999H179.491V2.784ZM168.667 2.784V0.783999H166.667V2.784H168.667ZM168.667 22.64H176.635V18.64H168.667V22.64ZM178.635 20.64V10.776H174.635V20.64H178.635ZM174.882 11.7397L180.306 21.6037L183.811 19.6763L178.387 9.81233L174.882 11.7397ZM182.059 22.64H186.019V18.64H182.059V22.64ZM187.769 21.6069L193.217 11.7429L189.716 9.80906L184.268 19.6731L187.769 21.6069ZM189.467 10.776V20.64H193.467V10.776H189.467ZM191.467 22.64H199.507V18.64H191.467V22.64ZM201.507 20.64V2.784H197.507V20.64H201.507ZM199.507 0.783999H189.163V4.784H199.507V0.783999ZM187.412 1.81634L182.516 10.6723L186.017 12.6077L190.913 3.75166L187.412 1.81634ZM186.027 10.6907L181.251 1.83466L177.73 3.73334L182.506 12.5893L186.027 10.6907ZM179.491 0.783999H168.667V4.784H179.491V0.783999ZM166.667 2.784V20.64H170.667V2.784H166.667ZM220.873 9.048L220.929 7.04873L220.916 7.04845L220.873 9.048ZM217.465 8.976L217.418 10.9754L217.423 10.9756L217.465 8.976ZM220.537 8.256L218.55 8.47686L218.747 10.256H220.537V8.256ZM229.657 8.256V10.256H231.657V8.256H229.657ZM213.601 13.656L213.655 11.6567L213.655 11.6567L213.601 13.656ZM217.153 13.752L217.224 11.7533L217.216 11.753L217.207 11.7527L217.153 13.752ZM213.745 14.496L215.738 14.3252L215.581 12.496H213.745V14.496ZM204.481 14.496V12.496H202.481V14.496H204.481ZM218.617 22.976C223.641 22.976 227.055 22.2095 229.254 20.7214C231.639 19.1078 232.305 16.8595 232.305 14.832H228.305C228.305 15.9005 228.024 16.7242 227.012 17.4086C225.816 18.2185 223.386 18.976 218.617 18.976V22.976ZM232.305 14.832V14.496H228.305V14.832H232.305ZM232.305 14.496C232.305 13.3552 232.106 12.2344 231.575 11.2113C231.036 10.1716 230.219 9.36042 229.188 8.75284C227.226 7.59724 224.428 7.14629 220.929 7.04878L220.818 11.0472C224.207 11.1417 226.124 11.5908 227.157 12.1992C227.623 12.4736 227.873 12.7604 228.025 13.0542C228.186 13.3646 228.305 13.8128 228.305 14.496H232.305ZM220.916 7.04845L217.508 6.97645L217.423 10.9756L220.831 11.0476L220.916 7.04845ZM217.513 6.97657C216.8 6.95958 216.27 6.92066 215.881 6.86939C215.481 6.81668 215.296 6.75917 215.239 6.73675C215.185 6.71552 215.376 6.77672 215.565 7.03082C215.778 7.31574 215.817 7.60872 215.817 7.752H211.817C211.817 8.24328 211.935 8.85426 212.359 9.42267C212.76 9.96028 213.295 10.2705 213.775 10.4592C214.666 10.8096 215.891 10.9391 217.418 10.9754L217.513 6.97657ZM215.817 7.752V7.728H211.817V7.752H215.817ZM215.817 7.728C215.817 7.75219 215.816 7.99869 215.648 8.287C215.469 8.59316 215.238 8.71762 215.182 8.74299C215.153 8.75625 215.245 8.71079 215.572 8.6687C215.885 8.62829 216.339 8.6 216.985 8.6V4.6C215.583 4.6 214.404 4.70446 213.533 5.099C213.032 5.32538 212.532 5.69134 212.194 6.26974C211.866 6.83031 211.817 7.3798 211.817 7.728H215.817ZM216.985 8.6H217.105V4.6H216.985V8.6ZM217.105 8.6C217.758 8.6 218.189 8.65509 218.462 8.71737C218.733 8.77935 218.802 8.83814 218.774 8.81807C218.728 8.78575 218.649 8.70655 218.592 8.58756C218.545 8.48858 218.544 8.42459 218.55 8.47686L222.525 8.03513C222.457 7.41811 222.207 6.3467 221.083 5.55193C220.109 4.8637 218.768 4.6 217.105 4.6V8.6ZM220.537 10.256H229.657V6.256H220.537V10.256ZM231.657 8.256V8.088H227.657V8.256H231.657ZM231.657 8.088C231.657 7.10844 231.479 6.05619 230.954 5.04396C230.423 4.02129 229.597 3.15322 228.475 2.46688C226.307 1.14047 223.004 0.471999 218.257 0.471999V4.472C222.774 4.472 225.172 5.13553 226.388 5.87911C226.958 6.22778 227.244 6.57921 227.404 6.88628C227.568 7.20381 227.657 7.59156 227.657 8.088H231.657ZM218.257 0.471999H215.617V4.472H218.257V0.471999ZM215.617 0.471999C211.281 0.471999 208.131 1.0412 206.01 2.27687C204.909 2.91806 204.066 3.75016 203.514 4.76985C202.967 5.78078 202.769 6.8568 202.769 7.896H206.769C206.769 7.36319 206.869 6.97522 207.032 6.6744C207.19 6.38234 207.471 6.05493 208.023 5.73312C209.208 5.0428 211.482 4.472 215.617 4.472V0.471999ZM202.769 7.896V8.112H206.769V7.896H202.769ZM202.769 8.112C202.769 9.94973 203.34 11.9582 205.273 13.4488C207.079 14.8413 209.795 15.5549 213.548 15.6553L213.655 11.6567C210.231 11.5651 208.532 10.9107 207.716 10.2812C207.027 9.74978 206.769 9.08226 206.769 8.112H202.769ZM213.547 15.6553L217.099 15.7513L217.207 11.7527L213.655 11.6567L213.547 15.6553ZM217.082 15.7507C217.881 15.7791 218.446 15.8328 218.841 15.8971C219.036 15.9288 219.175 15.9607 219.269 15.9876C219.365 16.0148 219.399 16.0322 219.392 16.029C219.361 16.0135 219.152 15.8939 218.998 15.6006C218.861 15.341 218.873 15.1361 218.873 15.192H222.873C222.873 14.8759 222.843 14.32 222.538 13.7394C222.215 13.1251 221.711 12.7145 221.173 12.447C220.241 11.9838 218.916 11.8132 217.224 11.7533L217.082 15.7507ZM218.873 15.192V15.24H222.873V15.192H218.873ZM218.873 15.24C218.873 15.1634 218.89 14.9779 219.01 14.7718C219.132 14.5628 219.275 14.4793 219.289 14.4717C219.291 14.4705 219.262 14.4863 219.186 14.5096C219.111 14.5329 218.999 14.5608 218.842 14.5871C218.523 14.6405 218.063 14.68 217.417 14.68V18.68C218.937 18.68 220.21 18.5103 221.162 18.0063C221.68 17.7317 222.146 17.3347 222.466 16.7859C222.784 16.2401 222.873 15.6886 222.873 15.24H218.873ZM217.417 14.68H217.321V18.68H217.417V14.68ZM217.321 14.68C215.984 14.68 215.687 14.3871 215.716 14.4137C215.788 14.4777 215.758 14.555 215.738 14.3252L211.753 14.6668C211.805 15.277 211.991 16.4463 213.046 17.3923C214.06 18.3009 215.514 18.68 217.321 18.68V14.68ZM213.745 12.496H204.481V16.496H213.745V12.496ZM202.481 14.496V14.712H206.481V14.496H202.481ZM202.481 14.712C202.481 16.1899 202.831 18.4515 205.027 20.2539C207.111 21.964 210.526 22.976 215.905 22.976V18.976C210.893 18.976 208.596 18.008 207.565 17.1621C206.647 16.4085 206.481 15.5381 206.481 14.712H202.481ZM215.905 22.976H218.617V18.976H215.905V22.976Z" fill="#FAEAF9"/>
</svg>
