<svg width="31" height="30" viewBox="0 0 31 30" fill="none" xmlns="http://www.w3.org/2000/svg">
<path d="M11.9518 23.7671C12.7615 23.7671 13.4456 24.0464 14.004 24.6048C14.5625 25.1632 14.8417 25.8612 14.8417 26.6989C14.8417 27.5365 14.5625 28.2206 14.004 28.7511C13.4456 29.2816 12.7615 29.5608 11.9518 29.5888C11.1421 29.6167 10.458 29.3375 9.8996 28.7511C9.34117 28.1648 9.048 27.4807 9.02008 26.6989C8.99216 25.9171 9.28533 25.2191 9.8996 24.6048C10.5139 23.9905 11.1979 23.7113 11.9518 23.7671ZM25.5216 23.7671C26.3314 23.7671 27.0294 24.0464 27.6157 24.6048C28.2021 25.1632 28.4813 25.8612 28.4534 26.6989C28.4255 27.5365 28.1462 28.2206 27.6157 28.7511C27.0852 29.2816 26.3872 29.5608 25.5216 29.5888C24.6561 29.6167 23.972 29.3375 23.4694 28.7511C22.9668 28.1648 22.6876 27.4807 22.6318 26.6989C22.5759 25.9171 22.8551 25.2191 23.4694 24.6048C24.0837 23.9905 24.7678 23.7113 25.5216 23.7671ZM10.9885 17.9455V18.9507H29.9193C30.2264 18.9507 30.38 19.1043 30.38 19.4114V21.338C30.38 21.673 30.2264 21.8406 29.9193 21.8406H7.59608C7.26103 21.8406 7.0935 21.673 7.0935 21.338C7.0935 19.0763 6.80032 16.8566 6.21397 14.6787L3.32411 3.74749C3.24034 3.52412 3.08677 3.41243 2.8634 3.41243H0.518004C0.378397 3.41243 0.308594 3.34263 0.308594 3.20302V0.690093C0.308594 0.550486 0.378397 0.480682 0.518004 0.480682H5.9208C6.06041 0.480682 6.13021 0.550486 6.13021 0.690093V2.15597C6.13021 2.35142 6.22793 2.44914 6.42338 2.44914H29.9193C30.2264 2.44914 30.38 2.60271 30.38 2.90985V10.6999C30.38 11.1187 30.2543 11.4957 30.003 11.8307C29.7517 12.1658 29.4167 12.4031 28.9979 12.5427L10.9885 17.9455Z" fill="black"/>
</svg>
