<svg width="30" height="28" viewBox="0 0 30 28" fill="none" xmlns="http://www.w3.org/2000/svg">
<path d="M14.6908 3.1577C13.0975 1.69264 11.012 0.879524 8.84747 0.879456C7.70182 0.880648 6.56772 1.10839 5.51043 1.54958C4.45314 1.99076 3.49354 2.63668 2.68684 3.45016C-0.753928 6.90555 -0.752466 12.3102 2.68977 15.7509L13.4113 26.4725C13.6599 26.9097 14.1395 27.1919 14.6908 27.1919C14.9171 27.1897 15.1398 27.1344 15.341 27.0306C15.5421 26.9267 15.7161 26.7771 15.8489 26.5938L26.6918 15.7509C30.134 12.3087 30.134 6.90555 26.6889 3.44431C25.8826 2.63233 24.9237 1.98772 23.8675 1.54755C22.8112 1.10738 21.6784 0.880332 20.5341 0.879456C18.3696 0.879809 16.2842 1.69289 14.6908 3.1577ZM24.6212 5.51199C26.9068 7.80925 26.9082 11.3977 24.6241 13.6833L14.6908 23.6166L4.75744 13.6833C2.47335 11.3977 2.47481 7.80925 4.75452 5.51784C5.86586 4.41235 7.31938 3.80404 8.84747 3.80404C10.3756 3.80404 11.8232 4.41235 12.9258 5.51491L13.6569 6.24606C13.7926 6.38197 13.9538 6.4898 14.1312 6.56337C14.3086 6.63694 14.4987 6.6748 14.6908 6.6748C14.8828 6.6748 15.073 6.63694 15.2504 6.56337C15.4278 6.4898 15.5889 6.38197 15.7246 6.24606L16.4558 5.51491C18.6667 3.30832 22.4131 3.31417 24.6212 5.51199Z" fill="black"/>
</svg>
