<svg width="102" height="102" viewBox="0 0 102 102" fill="none" xmlns="http://www.w3.org/2000/svg">
<path d="M102 50.9557C101.882 79.6791 78.7679 102.206 50.6386 102C22.2733 101.779 -0.0884856 78.8972 1.76574e-05 50.8967C0.0885209 22.247 23.1436 -0.103309 51.1254 -4.03159e-05C79.7562 0.103228 101.897 23.1617 102 50.9557ZM27.1853 58.1255C19.3822 59.8073 11.6529 61.4596 3.92366 63.1119C3.93841 63.2299 3.93841 63.2889 3.95316 63.3627C4.61694 65.8411 5.45772 68.2606 6.49026 70.6062C9.35186 77.0237 13.3788 82.5854 18.6152 87.2768C22.5093 90.7584 26.846 93.5319 31.6399 95.612C35.1653 97.1463 38.8234 98.2675 42.6291 98.8724C44.5319 99.1674 46.4495 99.4035 48.3818 99.551C50.6681 99.728 52.9692 99.6395 55.2556 99.433C57.2911 99.2559 59.2972 98.9461 61.2885 98.5183C61.4803 98.474 61.5835 98.4003 61.6278 98.1937C62.3211 94.9777 63.0291 91.7763 63.7224 88.5602C64.7992 83.6181 65.8759 78.676 66.9527 73.7191C67.6903 70.3259 68.4278 66.9328 69.1801 63.5545C69.9913 59.8515 70.8026 56.1634 71.5992 52.4605C71.7762 51.6491 71.9384 50.8377 72.1154 50.0115C70.7141 49.805 69.1063 50.3803 68.236 51.3983C68.1623 51.4868 68.118 51.6491 68.1475 51.7671C68.3245 52.5932 68.3245 53.4194 68.1623 54.2308C67.4543 57.6239 66.702 61.017 65.9792 64.4101C65.3597 67.2869 64.7402 70.1489 64.1354 73.0257C63.8256 74.4714 63.5454 75.932 62.8668 77.2892C61.8785 79.2661 60.5215 80.8741 58.4269 81.715C56.7306 82.4084 55.0195 82.4379 53.397 81.4495C53.1315 81.2872 52.984 81.2872 52.748 81.479C50.9336 82.851 48.8096 82.8952 47.0985 81.597C46.0365 80.8003 45.3432 79.7234 44.9744 78.4694C44.6942 77.4958 44.5467 76.4778 44.3401 75.4599C44.3992 75.4599 44.3549 75.4451 44.3401 75.4599C42.8946 76.1237 41.3605 76.4336 39.8117 76.6253C39.5905 76.6548 39.5462 76.7729 39.5167 76.9351C39.1627 78.5874 38.8087 80.2545 38.4547 81.9068C38.2039 83.0575 37.9679 84.1935 37.7024 85.3737C36.9206 85.1966 36.1536 85.0344 35.3866 84.8721C35.9028 82.4674 36.4191 80.0922 36.9206 77.717C37.8057 73.6305 38.6759 69.5441 39.561 65.4576C40.1805 62.5808 40.8148 59.6893 41.4048 56.7977C41.7736 54.9979 42.6291 53.5374 44.1631 52.5195C45.6382 51.5163 47.246 51.1032 49.0013 51.7228C50.6386 52.2982 51.5089 53.5817 51.9809 55.1749C52.512 57.0043 52.4087 58.8631 52.0989 60.7072C51.6712 63.2004 51.0516 65.6641 50.1814 68.0393C49.4733 70.0014 48.5883 71.8602 47.1428 73.4092C47.0838 73.483 47.0247 73.5863 47.01 73.6896C46.7297 75.2533 46.8035 76.8024 47.482 78.2629C47.8065 78.971 48.2638 79.5906 48.9866 79.9447C49.9011 80.3873 50.6976 80.0627 51.4499 79.5021C51.6122 79.3841 51.6564 79.2808 51.5827 79.0743C51.2729 78.1744 51.1992 77.2449 51.3909 76.3155C51.8334 74.0584 52.3202 71.816 52.7922 69.5588C53.4117 66.623 54.0313 63.6725 54.6508 60.7367C55.0933 58.6713 55.4768 56.5912 55.9931 54.5406C56.6126 52.0621 57.9697 50.0705 60.3002 48.9051C62.5571 47.7691 64.7844 47.7248 66.8937 49.3624C66.8937 49.3624 66.9085 49.3624 66.938 49.3476C68.6933 47.7986 70.7584 47.3708 73.0152 47.6511C73.325 47.6953 73.5905 47.6658 73.8855 47.4741C75.8916 46.1463 78.7532 45.984 80.7592 47.5183C80.8477 47.5921 81.01 47.6216 81.128 47.5921C84.9926 46.9282 87.987 43.6236 88.2968 39.6994C88.3558 39.0355 88.1935 38.4454 87.6625 38.0028C87.0282 37.4865 86.3054 37.4127 85.5532 37.6045C84.3584 37.8996 83.4586 38.652 82.6916 39.5666C81.9688 40.4223 81.246 41.2779 80.302 41.8975C78.0746 43.3433 75.6556 43.8892 73.0447 43.2843C72.3072 43.1073 71.6139 42.6942 70.8469 42.3696C70.7879 42.4139 70.6699 42.5172 70.5371 42.6204C69.7848 43.2843 68.9736 43.8449 68.059 44.2432C66.4217 44.9661 64.7549 45.1579 63.1028 44.3465C62.5276 44.0662 62.0261 43.6384 61.4655 43.2695C61.436 43.299 61.377 43.3728 61.3328 43.4466C60.5215 44.612 59.5922 45.63 58.3679 46.3676C57.0699 47.1495 55.6833 47.5183 54.164 47.1347C53.4265 46.943 52.7922 46.5741 52.2317 46.0873C51.8924 46.4266 51.5974 46.7659 51.2434 47.0462C49.5618 48.374 47.718 48.8313 45.6824 47.9166C45.5792 47.8724 45.3874 47.9166 45.2989 47.9756C44.3992 48.6395 43.4404 49.1706 42.3783 49.5247C40.4313 50.1738 38.4842 50.2476 36.5519 49.4214C36.3306 49.3329 36.2569 49.4509 36.1388 49.5542C33.941 51.531 31.4187 52.5932 28.4243 52.2392C26.6985 52.0326 25.2677 51.2507 24.2204 49.8197C23.0846 48.2559 22.8486 46.4561 23.0109 44.5973C23.1584 42.7827 23.4976 40.9829 24.0434 39.2421C24.9579 36.2915 26.315 33.6656 29.0586 31.9985C28.7488 31.6739 28.4243 31.3641 28.1588 31.0248C27.0378 29.5348 26.846 27.853 27.141 26.0827C27.436 24.3419 28.2326 22.8518 29.4274 21.5831C30.7844 20.1374 32.3922 19.1047 34.4425 19.0014C35.7258 18.9276 36.8616 19.2965 37.9237 20.0193C37.4664 20.6832 37.0239 21.3176 36.5666 21.9667C36.4634 21.9077 36.3749 21.8634 36.2864 21.8044C35.4603 21.3323 34.59 21.2438 33.6903 21.5241C31.2122 22.2765 29.1913 25.227 29.3979 27.794C29.5306 29.402 30.4746 30.4495 32.0529 30.7003C32.702 30.8035 33.3657 30.8478 34.059 30.9068C34.0885 31.6444 34.1328 32.3673 34.1623 33.105C33.823 33.1492 33.5428 33.1787 33.2477 33.2082C32.1267 33.341 31.0499 33.5475 30.0764 34.1671C28.6751 35.0671 27.7753 36.38 27.082 37.8553C26.2707 39.5814 25.843 41.4255 25.548 43.299C25.3857 44.3612 25.2382 45.4382 25.4005 46.5299C25.6217 48.1527 26.6395 49.3771 28.1588 49.7755C29.0143 49.9968 29.8846 49.982 30.7549 49.7902C32.1414 49.4804 33.351 48.8313 34.354 47.9166C34.0148 47.2528 33.646 46.6627 33.3952 46.0135C32.8642 44.6268 32.8495 43.181 33.0265 41.7205C33.2477 39.9207 33.587 38.1356 34.1623 36.4243C34.8113 34.477 35.6963 32.6476 37.1566 31.1724C37.7172 30.6118 38.3809 30.1397 38.971 29.6381C38.7349 29.402 38.4399 29.1365 38.2039 28.8414C36.9649 27.2776 36.7584 25.4778 37.1271 23.5895C37.5549 21.3913 38.7349 19.6358 40.4608 18.2638C41.9653 17.0688 43.6616 16.4344 45.6234 16.759C46.4495 16.8918 47.187 17.2311 47.8803 17.7179C47.423 18.3818 46.9805 19.0162 46.5527 19.6358C46.4937 19.6358 46.479 19.6358 46.479 19.6358C46.3757 19.5768 46.2725 19.5177 46.1692 19.4735C45.4169 19.0604 44.6352 18.9719 43.8091 19.1932C41.331 19.8571 39.266 22.6896 39.3692 25.286C39.443 27.1891 40.4755 28.2808 42.3783 28.4726C42.9241 28.5316 43.4551 28.5759 44.0156 28.6349C44.0599 29.3725 44.0894 30.0954 44.1336 30.8183C43.6616 30.8773 43.2339 30.9363 42.7913 30.9806C41.6556 31.1133 40.5935 31.4527 39.6642 32.146C38.4399 33.0607 37.6287 34.2999 37.0091 35.6867C36.2569 37.3537 35.8291 39.124 35.5488 40.9386C35.3718 42.0893 35.2096 43.24 35.4013 44.4055C35.7111 46.2496 37.0829 47.5331 38.9267 47.6511C40.6378 47.7544 42.1571 47.2233 43.5436 46.2791C43.7354 46.1463 43.7354 46.043 43.6616 45.8513C43.2191 44.8481 43.1306 43.8006 43.3519 42.7384C43.9419 39.8912 44.5467 37.0292 45.1514 34.1819C45.9627 30.3757 46.7592 26.5695 47.5853 22.7781C47.9983 20.8307 48.8096 19.0899 50.4174 17.8359C51.7154 16.818 53.1757 16.3902 54.8278 16.6262C55.5506 16.7295 56.2143 16.995 56.8486 17.4081C57.8811 12.643 58.9137 7.92214 59.9462 3.15703C55.3736 2.30138 50.8009 2.08009 46.1987 2.53742C41.5965 2.99475 37.1566 4.0717 32.879 5.79776C28.5718 7.52382 24.6039 9.82524 20.9458 12.6873C17.3024 15.5345 14.1458 18.8391 11.4022 22.6453C13.2755 22.2765 14.7801 22.6601 15.7093 24.3861C15.8126 24.2386 15.8716 24.1501 15.9454 24.0616C16.9926 22.6453 18.2464 21.4946 19.9723 20.9783C22.2143 20.2996 24.2204 21.3618 24.9137 23.5895C25.3267 24.932 25.2824 26.2892 25.0022 27.6317C24.1172 31.8805 23.2026 36.1292 22.2881 40.3633C21.4621 44.2285 20.6213 48.0789 19.7952 51.9441C19.633 52.6817 19.4855 53.4194 19.3232 54.1718C18.5267 53.9947 17.7597 53.8325 17.0074 53.6702C17.7892 50.041 18.5562 46.4709 19.3232 42.9007C20.0165 39.6846 20.7245 36.4538 21.4031 33.2377C21.8751 31.0396 22.3471 28.8414 22.7601 26.6285C22.9224 25.7581 22.9224 24.8582 22.5536 24.0173C22.2291 23.3092 21.6686 23.0289 20.9015 23.1912C20.0755 23.3682 19.397 23.8108 18.807 24.3861C17.3909 25.7581 16.5796 27.4694 16.1666 29.3725C15.3111 33.223 14.5146 37.0882 13.6885 40.9534C12.7445 45.3792 11.7857 49.805 10.8269 54.2308C10.7237 54.7176 10.6057 55.1897 10.5024 55.6913C9.70588 55.5143 8.9536 55.352 8.18657 55.1897C8.8946 51.8851 9.58787 48.6248 10.2959 45.3497C10.9892 42.1188 11.6972 38.888 12.3757 35.6424C12.8772 33.2525 13.364 30.8478 13.8065 28.4431C13.954 27.6022 13.954 26.7318 13.718 25.8761C13.482 25.0057 13.0542 24.6812 12.1987 24.9172C10.5024 25.3893 8.90935 26.0384 8.15707 27.8382C8.09807 27.971 8.00956 28.1038 7.93581 28.2366C5.31021 33.4 3.5844 38.8142 2.80262 44.5235C2.50761 46.6774 2.3601 48.8313 2.34535 50.9999C2.3306 53.3014 2.50761 55.588 2.83212 57.8599C2.96488 58.8336 3.15663 59.8073 3.31889 60.781C3.43689 60.781 3.5254 60.7957 3.59915 60.781C5.0152 60.4712 6.43125 60.1466 7.84731 59.8368C10.9892 59.1582 14.131 58.45 17.2729 57.7862C21.2998 56.9305 25.3119 56.1044 29.3388 55.2782C30.7401 54.9832 32.0972 55.1454 33.351 55.8978C34.7375 56.724 35.5783 57.978 36.1241 59.468C37.0239 61.9022 37.0681 64.4249 36.7731 66.9476C36.5666 68.7474 36.2274 70.562 35.8291 72.3323C35.0621 75.7549 33.882 79.0448 32.0677 82.0691C30.9319 83.9722 29.5749 85.6982 27.7458 86.9965C26.7575 87.7046 25.6955 88.2209 24.4417 88.2504C23.4386 88.28 22.5831 87.9554 21.9783 87.1292C21.2408 86.1261 21.2408 84.9901 21.4768 83.8541C22.0816 81.0511 22.7011 78.2481 23.3206 75.4599C24.1909 71.4914 25.0759 67.5229 25.961 63.5692C26.3592 61.7841 26.7575 60.0138 27.1853 58.1255ZM82.4556 49.864C82.4851 49.9525 82.5146 50.0853 82.5736 50.2033C82.9866 51.3393 83.1046 52.5195 83.0898 53.6997C83.0751 55.0717 82.8686 56.4289 82.5588 57.7714C81.954 60.5154 81.1575 63.1856 79.889 65.6936C78.8564 67.7442 77.5289 69.5588 75.6851 70.9751C74.1067 72.1848 72.3219 72.9667 70.3896 73.3355C69.6226 73.483 69.3718 73.7928 69.2243 74.5305C68.5163 78.0268 67.7198 81.5232 66.9527 85.0049C66.2742 88.1472 65.5809 91.2895 64.9024 94.4318C64.6664 95.5383 64.4156 96.6447 64.1649 97.7659C66.0234 97.4856 71.7319 95.1252 74.7853 93.3991C78.1336 91.5108 81.2313 89.2684 84.0486 86.6424C86.6595 84.2082 90.9961 79.1038 91.4534 77.8793C85.1697 79.4874 78.8859 81.0806 72.5874 82.6887C72.3957 81.9215 72.2039 81.1692 72.0122 80.402C72.0859 80.3725 72.1449 80.343 72.2187 80.3283C74.8 79.6644 77.3961 79.0153 79.9775 78.3514C84.3289 77.2449 88.6803 76.1385 93.0317 75.0173C93.2087 74.973 93.4005 74.8108 93.489 74.6632C93.8135 74.1174 94.1085 73.542 94.3887 72.9667C97.2946 67.2279 98.9762 61.135 99.4924 54.7324C99.6842 52.4014 99.6989 50.0558 99.5219 47.7101C99.3449 45.3497 99.0352 43.0187 98.5336 40.7026C97.4421 35.6719 95.5983 30.9363 93.0022 26.4958C91.3354 23.6485 89.4031 20.993 87.1905 18.5293C85.5384 16.6852 83.7683 14.9592 81.836 13.4101C80.9952 12.7315 80.066 12.4365 78.9744 12.8053C76.5848 13.6462 74.6525 16.5082 74.859 19.0309C74.9328 19.9898 75.2868 20.8307 76.1276 21.4061C76.6733 21.7897 77.3076 21.9519 77.9566 21.9962C78.4729 22.0405 78.9892 22.0847 79.5054 22.129C79.5349 22.8961 79.5792 23.6042 79.6087 24.3419C79.2547 24.3861 78.9449 24.4156 78.6352 24.4599C77.6911 24.5779 76.7471 24.7254 75.8916 25.1975C74.3723 26.0237 73.3987 27.3367 72.6612 28.8414C71.8352 30.5085 71.3779 32.2936 71.0829 34.1229C70.8911 35.2883 70.6994 36.4686 70.8469 37.6635C71.1271 39.8027 72.6022 41.1599 74.741 41.1894C76.8208 41.2042 78.5614 40.3633 80.0365 38.947C80.7887 38.2241 81.4525 37.398 82.249 36.7194C83.6208 35.5686 85.2139 34.9195 87.0577 35.2441C88.6213 35.5244 89.7571 36.3948 90.3766 37.8701C90.7896 38.8437 90.7159 39.8469 90.5388 40.8649C89.8898 44.4645 87.9428 47.1347 84.7419 48.8756C84.0339 49.2739 83.2373 49.5247 82.4556 49.864ZM62.3506 3.71763C62.3063 3.83565 62.2768 3.90942 62.2621 3.98318C61.8785 5.76825 61.495 7.53857 61.1115 9.32365C60.492 12.1857 59.8577 15.0329 59.2382 17.895C58.3679 21.9224 57.4976 25.9499 56.6273 29.9774C56.0078 32.8542 55.3883 35.7457 54.754 38.6225C54.3705 40.3485 53.928 42.0746 53.5297 43.8006C53.5002 43.8892 53.5297 44.0367 53.5887 44.1104C54.0313 44.6563 54.5918 44.9661 55.2998 44.9661C56.1111 44.9661 56.8191 44.6415 57.4534 44.1842C58.5597 43.4023 59.2972 42.2811 60.02 41.1747C60.0642 41.1009 60.0347 40.9534 60.0052 40.8501C59.312 39.0208 59.1054 37.1324 59.2234 35.1998C59.3267 33.4148 59.4742 31.6149 59.6512 29.8446C59.8282 28.2071 60.0052 26.5548 60.315 24.932C60.7575 22.542 61.2738 20.1816 61.8343 17.8212C62.2178 16.2131 62.6751 14.6051 63.4864 13.1446C64.1206 12.0086 64.8877 11.0055 66.0677 10.3711C67.2772 9.72197 68.6048 9.85474 69.4898 10.7399C70.4044 11.6546 70.6109 12.82 70.4634 14.0445C70.2421 15.7558 69.9471 17.4671 69.6668 19.1784C69.0178 23.1026 68.1918 26.9826 67.1297 30.8183C66.3185 33.7393 65.4039 36.6161 63.9436 39.3011C63.5896 39.9354 63.2356 40.5698 62.8668 41.2042C63.4274 41.927 64.0764 42.4729 65.0057 42.5319C66.7905 42.6647 68.0738 41.6763 69.2981 40.5846C68.6785 39.4634 68.3983 38.2979 68.3983 37.0734C68.3983 34.713 68.8703 32.4263 69.5636 30.1839C70.1388 28.2956 70.9649 26.5253 72.3072 25.0647C72.9415 24.3714 73.7085 23.796 74.4165 23.1764C74.1953 22.9404 73.8855 22.6748 73.6347 22.3503C72.5579 20.9635 72.2777 19.3702 72.5284 17.6589C72.9857 14.5608 74.7115 12.3332 77.4404 10.8579C77.6174 10.7547 77.8091 10.6809 78.0304 10.5924C73.1922 7.34679 67.9853 5.07488 62.3506 3.71763ZM34.6048 64.5872C34.531 63.7758 34.5015 62.9644 34.3835 62.153C34.2065 60.9285 33.8525 59.7483 33.056 58.7451C32.2742 57.7567 31.2269 57.3878 29.9879 57.5796C29.7961 57.6091 29.6929 57.6977 29.6486 57.9042C29.5749 58.332 29.4716 58.7451 29.3683 59.1582C28.4538 63.2889 27.5245 67.4049 26.6247 71.5357C25.7692 75.4156 24.8989 79.3103 24.0582 83.205C23.9106 83.8837 23.8074 84.577 23.7484 85.2704C23.7041 85.7425 23.9992 85.949 24.4564 85.89C24.6187 85.8753 24.7809 85.8458 24.9284 85.8015C25.8135 85.5359 26.5362 85.0196 27.2 84.4C29.1913 82.5707 30.5041 80.2692 31.5662 77.8203C32.5545 75.5336 33.2477 73.1585 33.764 70.7095C34.2065 68.6884 34.5458 66.6673 34.6048 64.5872ZM65.5367 55.2045C64.5779 56.3847 63.4864 57.4026 62.0408 57.9484C60.5952 58.4943 59.1202 58.5091 57.6009 58.273C57.5566 58.4353 57.5124 58.5681 57.4976 58.7008C56.5979 62.9644 55.6981 67.2426 54.7983 71.5062C54.4148 73.3502 53.987 75.1796 53.692 77.0384C53.4707 78.3957 54.105 79.5759 55.5801 79.8119C56.5388 79.9742 57.4239 79.6939 58.2352 79.1776C59.7102 78.2481 60.6247 76.8909 61.1115 75.2681C61.5983 73.5863 61.9523 71.8602 62.3211 70.1489C63.1913 66.1657 64.0469 62.1825 64.9024 58.214C65.1089 57.2256 65.3302 56.2076 65.5367 55.2045ZM45.6677 43.6089C45.6677 45.4824 46.892 46.4119 48.4408 45.9693C49.7241 45.6005 50.4911 44.6563 51.0664 43.5203C51.6269 42.3991 51.7892 41.1747 52.0399 39.9797C52.7185 36.8669 53.3822 33.7393 54.0608 30.6118C54.7393 27.4842 55.4178 24.3419 56.0963 21.2143C56.3471 20.0636 55.8308 19.3112 54.695 19.0457C53.692 18.8244 52.807 19.0899 52.0104 19.6948C50.9484 20.4914 50.3731 21.5979 50.0929 22.8518C49.2963 26.4367 48.5441 30.0512 47.777 33.6508C47.2165 36.2325 46.6707 38.829 46.125 41.4107C45.9332 42.2369 45.771 43.0483 45.6677 43.6089ZM70.0061 71.0193C72.1892 70.5177 74.0477 69.5441 75.5375 67.9213C76.8946 66.446 77.8239 64.7052 78.5614 62.8611C79.5202 60.4417 80.184 57.9485 80.5675 55.3815C80.7592 54.1423 80.8035 52.903 80.5085 51.6638C80.2725 50.6754 79.889 49.7755 78.9449 49.2444C77.7501 48.5658 75.8621 48.787 74.8738 49.7312C74.7115 49.8787 74.5493 50.1 74.505 50.3066C73.974 52.6522 73.4725 54.9979 72.9562 57.3436C72.1744 60.958 71.3779 64.5724 70.5961 68.1868C70.4044 69.1162 70.2126 70.0309 70.0061 71.0193ZM46.9952 69.4113C47.0247 69.367 47.0395 69.3523 47.0542 69.3228C47.9835 67.4049 48.5883 65.369 49.0898 63.3037C49.5618 61.4006 50.0044 59.4975 49.9159 57.5354C49.8864 56.6945 49.7536 55.8683 49.3553 55.1159C48.8981 54.2308 48.0573 53.7734 47.1575 53.8767C45.6087 54.0685 44.1779 55.3372 43.8386 56.8715C43.2634 59.4827 42.7176 62.094 42.1571 64.6904C42.0096 65.3986 41.8473 66.1067 41.6998 66.8296C44.1189 66.387 45.9775 67.0213 46.9952 69.4113ZM61.7753 38.1946C61.8048 38.2094 61.849 38.2241 61.8785 38.2241C62.2916 37.3242 62.7341 36.4538 63.0881 35.5391C64.5484 31.851 65.5367 28.0153 66.3037 24.1353C66.9527 20.9045 67.4838 17.6442 68.0295 14.3986C68.118 13.897 68.1033 13.3511 68.0443 12.8495C67.9705 12.3184 67.6608 12.2152 67.1887 12.4807C67.0117 12.584 66.8347 12.702 66.6872 12.8495C65.9497 13.5134 65.4924 14.3691 65.1384 15.269C64.3861 17.2163 63.8846 19.2227 63.4569 21.2586C63.0881 22.9846 62.7783 24.7254 62.4981 26.4662C62.2768 27.8235 62.1293 29.1807 61.9818 30.5527C61.849 31.7625 61.7458 32.9869 61.6573 34.1967C61.554 35.5391 61.5098 36.8669 61.7753 38.1946ZM65.3154 51.236C65.1089 51.0885 64.9319 50.9409 64.7254 50.8377C64.0616 50.4836 63.3683 50.4541 62.6603 50.6016C60.8165 50.9852 59.5922 52.1654 58.7662 53.803C58.4269 54.4668 58.2204 55.1749 58.1024 56.0159C58.7072 56.0159 59.2825 56.0454 59.843 56.0159C60.846 55.9421 61.7458 55.6028 62.4981 54.9242C63.6634 53.8915 64.3861 52.5195 65.3154 51.236ZM40.1067 74.2206C40.4165 74.1764 40.6525 74.1321 40.8885 74.0879C42.2456 73.8223 43.5436 73.4092 44.6352 72.5093C44.7089 72.4503 44.7974 72.3618 44.8122 72.2733C44.9302 71.5799 44.9449 70.8865 44.7237 70.2079C44.5172 69.6031 44.1041 69.2195 43.4551 69.1015C42.6291 68.9539 41.8916 69.2195 41.1983 69.6178C41.1245 69.6621 41.0655 69.7948 41.036 69.8981C40.8738 70.621 40.7115 71.3439 40.564 72.0815C40.4165 72.7749 40.269 73.4683 40.1067 74.2206Z" fill="white"/>
</svg>
