<svg width="31" height="30" viewBox="0 0 31 30" fill="none" xmlns="http://www.w3.org/2000/svg">
<path d="M11.6432 23.2865C12.453 23.2865 13.137 23.5657 13.6955 24.1241C14.2539 24.6825 14.5331 25.3806 14.5331 26.2182C14.5331 27.0559 14.2539 27.7399 13.6955 28.2704C13.137 28.8009 12.453 29.0802 11.6432 29.1081C10.8335 29.136 10.1494 28.8568 9.59101 28.2704C9.03258 27.6841 8.7394 27 8.71148 26.2182C8.68356 25.4364 8.97674 24.7384 9.59101 24.1241C10.2053 23.5098 10.8894 23.2306 11.6432 23.2865ZM25.213 23.2865C26.0228 23.2865 26.7208 23.5657 27.3071 24.1241C27.8935 24.6825 28.1727 25.3806 28.1448 26.2182C28.1169 27.0559 27.8377 27.7399 27.3071 28.2704C26.7766 28.8009 26.0786 29.0802 25.213 29.1081C24.3475 29.136 23.6634 28.8568 23.1608 28.2704C22.6582 27.6841 22.379 27 22.3232 26.2182C22.2673 25.4364 22.5465 24.7384 23.1608 24.1241C23.7751 23.5098 24.4592 23.2306 25.213 23.2865ZM10.6799 17.4648V18.47H29.6107C29.9178 18.47 30.0714 18.6236 30.0714 18.9307V20.8573C30.0714 21.1924 29.9178 21.3599 29.6107 21.3599H7.28749C6.95243 21.3599 6.7849 21.1924 6.7849 20.8573C6.7849 18.5957 6.49173 16.3759 5.90538 14.198L3.01551 3.26681C2.93175 3.04343 2.77818 2.93175 2.55481 2.93175H0.209411C0.0698036 2.93175 0 2.86195 0 2.72234V0.209411C0 0.0698035 0.0698036 0 0.209411 0H5.61221C5.75181 0 5.82162 0.0698035 5.82162 0.209411V1.67528C5.82162 1.87073 5.91934 1.96846 6.11479 1.96846H29.6107C29.9178 1.96846 30.0714 2.12203 30.0714 2.42916V10.2192C30.0714 10.6381 29.9457 11.015 29.6944 11.3501C29.4431 11.6851 29.1081 11.9224 28.6893 12.0621L10.6799 17.4648Z" fill="#FAEAF9"/>
</svg>
