<svg width="292" height="293" viewBox="0 0 292 293" fill="none" xmlns="http://www.w3.org/2000/svg">
<path d="M292 145.874C291.662 228.102 225.493 292.591 144.966 292C63.7634 291.367 -0.252612 225.863 0.000749459 145.705C0.254111 63.6884 66.2548 -0.294611 146.359 0.00102032C228.322 0.296651 291.704 66.3069 292 145.874ZM77.825 166.399C55.4869 171.214 33.36 175.944 11.2331 180.674C11.2753 181.012 11.2753 181.181 11.3176 181.392C13.2178 188.487 15.6247 195.413 18.5806 202.128C26.7726 220.5 38.3006 236.421 53.2911 249.852C64.439 259.819 76.8538 267.758 90.5775 273.713C100.67 278.105 111.142 281.315 122.037 283.047C127.484 283.891 132.973 284.567 138.505 284.989C145.05 285.496 151.638 285.243 158.183 284.652C164.01 284.145 169.753 283.258 175.454 282.033C176.003 281.906 176.298 281.695 176.425 281.104C178.41 271.897 180.436 262.733 182.421 253.526C185.504 239.378 188.586 225.23 191.669 211.039C193.78 201.326 195.891 191.612 198.045 181.941C200.368 171.34 202.69 160.782 204.97 150.182C205.477 147.859 205.941 145.536 206.448 143.171C202.437 142.58 197.834 144.227 195.343 147.141C195.131 147.394 195.005 147.859 195.089 148.197C195.596 150.562 195.596 152.927 195.131 155.25C193.105 164.963 190.951 174.677 188.882 184.39C187.108 192.626 185.335 200.819 183.603 209.055C182.717 213.193 181.914 217.374 179.972 221.26C177.143 226.919 173.258 231.522 167.262 233.93C162.406 235.915 157.507 235.999 152.862 233.17C152.102 232.705 151.68 232.705 151.004 233.254C145.81 237.182 139.73 237.308 134.831 233.592C131.791 231.311 129.806 228.228 128.751 224.639C127.948 221.851 127.526 218.937 126.935 216.023C127.104 216.023 126.977 215.981 126.935 216.023C122.797 217.923 118.405 218.81 113.971 219.359C113.338 219.444 113.211 219.782 113.127 220.246C112.113 224.976 111.1 229.749 110.086 234.479C109.369 237.773 108.693 241.025 107.933 244.404C105.695 243.897 103.499 243.432 101.303 242.968C102.781 236.084 104.259 229.284 105.695 222.485C108.228 210.786 110.72 199.088 113.253 187.389C115.027 179.154 116.843 170.876 118.532 162.598C119.587 157.446 122.037 153.265 126.428 150.351C130.651 147.479 135.254 146.296 140.279 148.07C144.966 149.717 147.457 153.391 148.808 157.953C150.329 163.189 150.033 168.511 149.146 173.79C147.922 180.927 146.148 187.98 143.657 194.78C141.63 200.397 139.096 205.718 134.958 210.153C134.789 210.364 134.62 210.659 134.578 210.955C133.776 215.432 133.987 219.866 135.929 224.047C136.858 226.074 138.167 227.848 140.236 228.862C142.854 230.129 145.135 229.2 147.288 227.595C147.753 227.257 147.879 226.961 147.668 226.37C146.782 223.794 146.57 221.133 147.119 218.472C148.386 212.011 149.78 205.591 151.131 199.13C152.904 190.725 154.678 182.279 156.452 173.874C157.718 167.962 158.816 162.007 160.294 156.137C162.068 149.041 165.953 143.34 172.624 140.003C179.085 136.752 185.461 136.625 191.5 141.313C191.5 141.313 191.542 141.313 191.627 141.27C196.652 136.836 202.563 135.611 209.024 136.414C209.911 136.54 210.671 136.456 211.515 135.907C217.258 132.106 225.45 131.641 231.193 136.034C231.447 136.245 231.911 136.329 232.249 136.245C243.312 134.344 251.884 124.884 252.771 113.65C252.94 111.75 252.476 110.06 250.955 108.793C249.14 107.315 247.071 107.104 244.917 107.653C241.497 108.498 238.921 110.652 236.725 113.27C234.656 115.72 232.587 118.169 229.884 119.943C223.508 124.082 216.583 125.644 209.109 123.913C206.997 123.406 205.013 122.223 202.817 121.294C202.648 121.421 202.31 121.717 201.93 122.012C199.776 123.913 197.454 125.518 194.836 126.658C190.149 128.727 185.377 129.276 180.648 126.953C179.001 126.151 177.565 124.926 175.96 123.87C175.876 123.955 175.707 124.166 175.58 124.377C173.258 127.714 170.598 130.628 167.093 132.739C163.377 134.978 159.407 136.034 155.058 134.936C152.947 134.387 151.131 133.331 149.526 131.937C148.555 132.908 147.711 133.88 146.697 134.682C141.883 138.483 136.605 139.792 130.778 137.174C130.482 137.047 129.933 137.174 129.68 137.343C127.104 139.243 124.359 140.764 121.319 141.777C115.745 143.636 110.171 143.847 104.639 141.482C104.006 141.228 103.795 141.566 103.457 141.862C97.1649 147.521 89.9441 150.562 81.372 149.548C76.4315 148.957 72.3355 146.719 69.3374 142.622C66.0859 138.145 65.4103 132.993 65.8748 127.671C66.297 122.477 67.2683 117.324 68.8307 112.341C71.4487 103.894 75.3336 96.3768 83.1878 91.6044C82.301 90.6753 81.372 89.7884 80.612 88.8171C77.4027 84.5515 76.8538 79.737 77.6983 74.669C78.5428 69.6855 80.8231 65.42 84.2435 61.7879C88.1284 57.6491 92.7311 54.6928 98.6006 54.3972C102.274 54.186 105.526 55.2418 108.566 57.3112C107.257 59.2117 105.99 61.0277 104.681 62.886C104.386 62.7171 104.132 62.5904 103.879 62.4214C101.514 61.07 99.0229 60.8166 96.4471 61.619C89.3529 63.7729 83.5678 72.2195 84.159 79.568C84.5391 84.1714 87.2416 87.17 91.7599 87.8879C93.6179 88.1836 95.5181 88.3103 97.5027 88.4792C97.5872 90.5909 97.7139 92.6603 97.7983 94.7719C96.8271 94.8986 96.0248 94.9831 95.1803 95.0676C91.971 95.4477 88.8884 96.0389 86.1015 97.8127C82.0899 100.389 79.5141 104.148 77.5294 108.371C75.2069 113.312 73.9823 118.591 73.1378 123.955C72.6733 126.996 72.251 130.079 72.7155 133.204C73.3489 137.85 76.2626 141.355 80.612 142.495C83.0611 143.129 85.5525 143.087 88.0439 142.537C92.0132 141.651 95.4758 139.792 98.3473 137.174C97.3761 135.273 96.3204 133.584 95.6025 131.726C94.0824 127.756 94.0401 123.617 94.5469 119.436C95.1803 114.284 96.1515 109.173 97.7983 104.274C99.6563 98.6996 102.19 93.4627 106.37 89.2394C107.975 87.6346 109.875 86.2831 111.564 84.8472C110.889 84.1714 110.044 83.4112 109.369 82.5666C105.821 78.0899 105.23 72.9375 106.286 67.5316C107.511 61.2389 110.889 56.2132 115.829 52.2855C120.136 48.8646 124.992 47.0486 130.609 47.9777C132.973 48.3578 135.085 49.3292 137.069 50.7229C135.76 52.6234 134.494 54.4394 133.269 56.2132C133.1 56.2132 133.058 56.2132 133.058 56.2132C132.762 56.0442 132.467 55.8753 132.171 55.7486C130.017 54.5661 127.779 54.3127 125.415 54.9462C118.321 56.8467 112.409 64.9554 112.704 72.3884C112.916 77.8365 115.871 80.9617 121.319 81.5108C122.881 81.6797 124.401 81.8064 126.006 81.9753C126.133 84.087 126.217 86.1564 126.344 88.2258C124.992 88.3947 123.768 88.5637 122.501 88.6904C119.25 89.0705 116.209 90.0418 113.549 92.0268C110.044 94.6452 107.722 98.1928 105.948 102.163C103.795 106.935 102.57 112.003 101.768 117.198C101.261 120.492 100.796 123.786 101.345 127.122C102.232 132.402 106.159 136.076 111.438 136.414C116.336 136.709 120.685 135.189 124.655 132.486C125.204 132.106 125.204 131.81 124.992 131.261C123.726 128.389 123.472 125.391 124.106 122.35C125.795 114.199 127.526 106.006 129.257 97.8549C131.58 86.9588 133.86 76.0627 136.225 65.2088C137.407 59.634 139.73 54.6506 144.332 51.0607C148.048 48.1467 152.229 46.9219 156.958 47.5976C159.027 47.8933 160.928 48.6535 162.743 49.836C165.699 36.1947 168.655 22.6802 171.611 9.03889C158.521 6.58937 145.43 5.95588 132.256 7.2651C119.081 8.57433 106.37 11.6573 94.1246 16.5986C81.7943 21.5399 70.4353 28.1282 59.963 36.3214C49.5329 44.4724 40.4964 53.9326 32.6422 64.8287C38.005 63.7729 42.3121 64.8709 44.9724 69.8122C45.268 69.3899 45.4369 69.1365 45.6481 68.8831C48.6462 64.8287 52.2355 61.5345 57.176 60.0564C63.5945 58.1137 69.3374 61.1544 71.322 67.5316C72.5044 71.3748 72.3777 75.2603 71.5754 79.1035C69.0418 91.2666 66.4237 103.43 63.8056 115.551C61.4409 126.616 59.034 137.638 56.6693 148.704C56.2048 150.815 55.7825 152.927 55.318 155.081C53.0378 154.574 50.842 154.109 48.6884 153.645C50.9264 143.255 53.1222 133.035 55.318 122.815C57.3027 113.608 59.3296 104.359 61.272 95.152C62.6233 88.8593 63.9746 82.5666 65.1569 76.2316C65.6214 73.7399 65.6214 71.1637 64.5657 68.7564C63.6367 66.7292 62.0321 65.9268 59.8363 66.3913C57.4716 66.8981 55.5292 68.1651 53.8401 69.8122C49.7863 73.7399 47.4638 78.6389 46.2815 84.087C43.8323 95.1098 41.5521 106.175 39.1873 117.24C36.4848 129.91 33.7401 142.58 30.9953 155.25C30.6997 156.643 30.3619 157.995 30.0663 159.431C27.7861 158.924 25.6325 158.459 23.4367 157.995C25.4636 148.535 27.4483 139.201 29.4752 129.825C31.4598 120.576 33.4867 111.327 35.4291 102.036C36.8649 95.1943 38.2584 88.3103 39.5252 81.4263C39.9474 79.019 39.9474 76.5273 39.2718 74.0777C38.5962 71.586 37.3716 70.6569 34.9224 71.3326C30.0663 72.6841 25.5058 74.5423 23.3522 79.6947C23.1833 80.0748 22.93 80.4549 22.7188 80.835C15.2024 95.6166 10.2619 111.116 8.02387 127.46C7.17933 133.626 6.75706 139.792 6.71483 146.001C6.67261 152.589 7.17933 159.135 8.10832 165.639C8.48836 168.426 9.03731 171.214 9.50181 174.001C9.83963 174.001 10.093 174.043 10.3041 174.001C14.3579 173.114 18.4117 172.185 22.4655 171.298C31.4598 169.355 40.4542 167.328 49.4485 165.428C60.9764 162.978 72.4622 160.613 83.9901 158.248C88.0017 157.404 91.8866 157.868 95.4758 160.022C99.4452 162.387 101.852 165.977 103.415 170.242C105.99 177.211 106.117 184.433 105.272 191.654C104.681 196.807 103.71 202.002 102.57 207.07C100.374 216.868 96.996 226.286 91.8021 234.943C88.5506 240.391 84.6658 245.333 79.4296 249.049C76.6004 251.076 73.5601 252.555 69.9708 252.639C67.0993 252.723 64.6502 251.794 62.9189 249.429C60.8075 246.557 60.8075 243.306 61.4832 240.054C63.2145 232.029 64.988 224.005 66.7615 216.023C69.2529 204.662 71.7865 193.302 74.3202 181.983C75.4603 176.873 76.6004 171.805 77.825 166.399ZM236.049 142.749C236.134 143.002 236.218 143.382 236.387 143.72C237.569 146.972 237.907 150.351 237.865 153.729C237.823 157.657 237.232 161.542 236.345 165.386C234.614 173.241 232.333 180.885 228.702 188.065C225.746 193.935 221.946 199.13 216.667 203.184C212.149 206.647 207.039 208.886 201.508 209.941C199.312 210.364 198.594 211.251 198.172 213.362C196.145 223.372 193.865 233.381 191.669 243.348C189.726 252.343 187.742 261.339 185.799 270.335C185.124 273.502 184.406 276.67 183.688 279.879C189.008 279.077 205.35 272.32 214.091 267.378C223.677 261.972 232.544 255.553 240.61 248.036C248.084 241.067 260.499 226.455 261.808 222.949C243.819 227.553 225.83 232.114 207.799 236.717C207.251 234.521 206.702 232.367 206.153 230.171C206.364 230.087 206.533 230.002 206.744 229.96C214.134 228.059 221.565 226.201 228.955 224.301C241.412 221.133 253.869 217.966 266.326 214.756C266.833 214.629 267.382 214.165 267.635 213.742C268.564 212.18 269.409 210.533 270.211 208.886C278.53 192.457 283.343 175.015 284.821 156.686C285.37 150.013 285.413 143.298 284.906 136.583C284.399 129.825 283.512 123.153 282.077 116.522C278.952 102.12 273.674 88.5637 266.242 75.8515C261.47 67.7006 255.938 60.0986 249.604 53.0457C244.875 47.7666 239.808 42.8253 234.276 38.3908C231.869 36.4481 229.209 35.6035 226.084 36.6593C219.243 39.0666 213.711 47.2598 214.302 54.4816C214.514 57.2268 215.527 59.6341 217.934 61.2811C219.496 62.3792 221.312 62.8438 223.17 62.9705C224.648 63.0972 226.126 63.2239 227.604 63.3506C227.688 65.5467 227.815 67.5739 227.9 69.6855C226.886 69.8122 225.999 69.8967 225.113 70.0234C222.41 70.3612 219.707 70.7836 217.258 72.135C212.909 74.5001 210.122 78.2588 208.011 82.5666C205.646 87.3389 204.337 92.4491 203.492 97.686C202.943 101.022 202.394 104.401 202.817 107.822C203.619 113.946 207.842 117.831 213.965 117.916C219.919 117.958 224.901 115.551 229.124 111.496C231.278 109.427 233.178 107.062 235.458 105.119C239.385 101.825 243.946 99.9666 249.224 100.896C253.7 101.698 256.952 104.19 258.725 108.413C259.908 111.201 259.696 114.072 259.19 116.987C257.332 127.291 251.758 134.936 242.594 139.919C240.568 141.059 238.287 141.777 236.049 142.749ZM178.494 10.6437C178.367 10.9816 178.283 11.1928 178.241 11.4039C177.143 16.5141 176.045 21.5821 174.947 26.6923C173.173 34.8855 171.358 43.0365 169.584 51.2297C167.093 62.7593 164.601 74.2889 162.11 85.8185C160.336 94.054 158.563 102.332 156.747 110.567C155.649 115.508 154.382 120.45 153.242 125.391C153.158 125.644 153.242 126.067 153.411 126.278C154.678 127.84 156.283 128.727 158.31 128.727C160.632 128.727 162.659 127.798 164.475 126.489C167.642 124.251 169.753 121.041 171.822 117.873C171.949 117.662 171.864 117.24 171.78 116.944C169.795 111.707 169.204 106.302 169.542 100.769C169.837 95.6588 170.26 90.5064 170.766 85.4384C171.273 80.7506 171.78 76.0205 172.667 71.3748C173.933 64.5331 175.411 57.7758 177.016 51.0185C178.114 46.4151 179.423 41.8117 181.745 37.6306C183.561 34.3787 185.757 31.5069 189.135 29.6908C192.598 27.8326 196.398 28.2127 198.932 30.7467C201.55 33.3651 202.141 36.7015 201.719 40.2069C201.085 45.1059 200.241 50.0049 199.439 54.904C197.581 66.1379 195.216 77.2452 192.176 88.2258C189.853 96.5879 187.235 104.823 183.055 112.51C182.041 114.326 181.028 116.142 179.972 117.958C181.577 120.027 183.435 121.59 186.095 121.759C191.204 122.139 194.878 119.309 198.383 116.184C196.609 112.974 195.807 109.638 195.807 106.133C195.807 99.3753 197.158 92.8292 199.143 86.4098C200.79 81.004 203.155 75.936 206.997 71.7549C208.813 69.77 211.009 68.1229 213.036 66.3491C212.402 65.6734 211.515 64.9132 210.798 63.9841C207.715 60.0141 206.913 55.453 207.631 50.554C208.94 41.685 213.88 35.3078 221.692 31.0845C222.199 30.7889 222.748 30.5777 223.381 30.3243C209.531 21.0331 194.625 14.5292 178.494 10.6437ZM99.0651 184.897C98.854 182.574 98.7695 180.252 98.4317 177.929C97.925 174.423 96.9116 171.045 94.6313 168.173C92.3933 165.343 89.3952 164.287 85.8481 164.837C85.2992 164.921 85.0036 165.174 84.8769 165.766C84.6657 166.99 84.3702 168.173 84.0746 169.355C81.4565 181.181 78.7962 192.964 76.2204 204.789C73.7712 215.896 71.2798 227.046 68.8729 238.195C68.4506 240.138 68.155 242.123 67.9861 244.108C67.8594 245.459 68.704 246.051 70.013 245.882C70.4775 245.839 70.942 245.755 71.3643 245.628C73.8979 244.868 75.967 243.39 77.8672 241.616C83.5678 236.379 87.326 229.791 90.3664 222.78C93.1956 216.234 95.1803 209.435 96.6582 202.424C97.925 196.638 98.8962 190.852 99.0651 184.897ZM187.615 158.037C184.87 161.416 181.745 164.33 177.607 165.892C173.469 167.455 169.246 167.497 164.897 166.821C164.77 167.286 164.644 167.666 164.601 168.046C162.025 180.252 159.45 192.499 156.874 204.704C155.776 209.984 154.551 215.221 153.707 220.542C153.073 224.427 154.889 227.806 159.112 228.482C161.857 228.946 164.39 228.144 166.713 226.666C170.935 224.005 173.553 220.12 174.947 215.474C176.34 210.659 177.354 205.718 178.41 200.819C180.901 189.416 183.35 178.013 185.799 166.653C186.39 163.823 187.024 160.909 187.615 158.037ZM130.735 124.842C130.735 130.205 134.24 132.866 138.674 131.599C142.348 130.543 144.544 127.84 146.19 124.588C147.795 121.379 148.26 117.873 148.977 114.453C150.92 105.541 152.82 96.588 154.762 87.6345C156.705 78.6811 158.647 69.6855 160.59 60.7321C161.308 57.4379 159.83 55.284 156.578 54.5239C153.707 53.8904 151.173 54.6506 148.893 56.3821C145.853 58.6627 144.206 61.8302 143.403 65.42C141.123 75.6826 138.97 86.0297 136.774 96.3346C135.169 103.725 133.607 111.158 132.044 118.549C131.495 120.914 131.031 123.237 130.735 124.842ZM200.41 203.311C206.659 201.875 211.98 199.087 216.245 194.442C220.13 190.219 222.79 185.235 224.901 179.956C227.646 173.03 229.546 165.892 230.644 158.544C231.193 154.996 231.32 151.449 230.475 147.901C229.8 145.071 228.702 142.495 225.999 140.975C222.579 139.032 217.174 139.666 214.345 142.369C213.88 142.791 213.416 143.424 213.289 144.016C211.769 150.731 210.333 157.446 208.855 164.161C206.617 174.508 204.337 184.855 202.099 195.202C201.55 197.863 201.001 200.481 200.41 203.311ZM134.536 198.707C134.62 198.581 134.662 198.538 134.705 198.454C137.365 192.964 139.096 187.136 140.532 181.223C141.883 175.775 143.15 170.327 142.897 164.71C142.812 162.303 142.432 159.937 141.292 157.784C139.983 155.25 137.576 153.94 135 154.236C130.566 154.785 126.47 158.417 125.499 162.809C123.852 170.285 122.29 177.76 120.685 185.193C120.263 187.22 119.799 189.247 119.376 191.317C126.302 190.05 131.622 191.866 134.536 198.707ZM176.847 109.342C176.932 109.385 177.058 109.427 177.143 109.427C178.325 106.851 179.592 104.359 180.605 101.74C184.786 91.1821 187.615 80.2015 189.811 69.0943C191.669 59.8452 193.189 50.5117 194.751 41.2205C195.005 39.7845 194.962 38.2219 194.794 36.786C194.582 35.2656 193.696 34.97 192.344 35.7302C191.838 36.0258 191.331 36.3637 190.909 36.786C188.797 38.6865 187.488 41.136 186.475 43.7122C184.321 49.287 182.886 55.0307 181.661 60.8588C180.605 65.8001 179.719 70.7836 178.916 75.7671C178.283 79.6525 177.861 83.5379 177.438 87.4656C177.058 90.9287 176.763 94.4341 176.509 97.8972C176.214 101.74 176.087 105.541 176.847 109.342ZM186.982 146.676C186.39 146.254 185.884 145.832 185.293 145.536C183.392 144.522 181.408 144.438 179.381 144.86C174.102 145.958 170.598 149.337 168.233 154.025C167.262 155.925 166.67 157.953 166.333 160.36C168.064 160.36 169.711 160.444 171.315 160.36C174.187 160.149 176.763 159.177 178.916 157.235C182.252 154.278 184.321 150.351 186.982 146.676ZM114.816 212.475C115.703 212.349 116.378 212.222 117.054 212.095C120.939 211.335 124.655 210.153 127.779 207.576C127.991 207.407 128.244 207.154 128.286 206.901C128.624 204.916 128.666 202.931 128.033 200.988C127.442 199.256 126.259 198.158 124.401 197.821C122.037 197.398 119.925 198.158 117.941 199.299C117.729 199.425 117.561 199.805 117.476 200.101C117.012 202.171 116.547 204.24 116.125 206.352C115.703 208.337 115.28 210.321 114.816 212.475Z" fill="#082DE8"/>
</svg>
