<svg width="102" height="102" viewBox="0 0 102 102" fill="none" xmlns="http://www.w3.org/2000/svg">
<path d="M102 50.9557C101.882 79.6791 78.7682 102.206 50.6389 102C22.2736 101.779 -0.0882415 78.8972 0.000261798 50.8967C0.0887651 22.247 23.1439 -0.103309 51.1256 -4.03159e-05C79.7564 0.103228 101.897 23.1617 102 50.9557ZM27.1855 58.1255C19.3825 59.8073 11.6532 61.4596 3.92391 63.1119C3.93866 63.2299 3.93866 63.2889 3.95341 63.3627C4.61718 65.8411 5.45796 68.2606 6.4905 70.6062C9.35211 77.0237 13.379 82.5854 18.6154 87.2768C22.5096 90.7584 26.8463 93.5319 31.6402 95.612C35.1656 97.1463 38.8237 98.2675 42.6293 98.8724C44.5322 99.1674 46.4497 99.4035 48.382 99.551C50.6684 99.728 52.9695 99.6395 55.2558 99.433C57.2914 99.2559 59.2974 98.9461 61.2888 98.5183C61.4805 98.474 61.5838 98.4003 61.628 98.1937C62.3213 94.9777 63.0293 91.7763 63.7226 88.5602C64.7994 83.6181 65.8762 78.676 66.953 73.7191C67.6905 70.3259 68.428 66.9328 69.1803 63.5545C69.9916 59.8515 70.8029 56.1634 71.5994 52.4605C71.7764 51.6491 71.9387 50.8377 72.1157 50.0115C70.7144 49.805 69.1066 50.3803 68.2363 51.3983C68.1625 51.4868 68.1183 51.6491 68.1478 51.7671C68.3248 52.5932 68.3248 53.4194 68.1625 54.2308C67.4545 57.6239 66.7022 61.017 65.9794 64.4101C65.3599 67.2869 64.7404 70.1489 64.1356 73.0257C63.8259 74.4714 63.5456 75.932 62.8671 77.2892C61.8788 79.2661 60.5217 80.8741 58.4272 81.715C56.7309 82.4084 55.0198 82.4379 53.3972 81.4495C53.1317 81.2872 52.9842 81.2872 52.7482 81.479C50.9339 82.851 48.8098 82.8952 47.0987 81.597C46.0367 80.8003 45.3434 79.7234 44.9747 78.4694C44.6944 77.4958 44.5469 76.4778 44.3404 75.4599C44.3994 75.4599 44.3551 75.4451 44.3404 75.4599C42.8948 76.1237 41.3608 76.4336 39.812 76.6253C39.5907 76.6548 39.5465 76.7729 39.517 76.9351C39.163 78.5874 38.8089 80.2545 38.4549 81.9068C38.2042 83.0575 37.9682 84.1935 37.7027 85.3737C36.9209 85.1966 36.1538 85.0344 35.3868 84.8721C35.9031 82.4674 36.4194 80.0922 36.9209 77.717C37.8059 73.6305 38.6762 69.5441 39.5612 65.4576C40.1807 62.5808 40.815 59.6893 41.405 56.7977C41.7738 54.9979 42.6293 53.5374 44.1634 52.5195C45.6384 51.5163 47.2463 51.1032 49.0016 51.7228C50.6389 52.2982 51.5092 53.5817 51.9812 55.1749C52.5122 57.0043 52.4089 58.8631 52.0992 60.7072C51.6714 63.2004 51.0519 65.6641 50.1816 68.0393C49.4736 70.0014 48.5886 71.8602 47.143 73.4092C47.084 73.483 47.025 73.5863 47.0102 73.6896C46.73 75.2533 46.8037 76.8024 47.4823 78.2629C47.8068 78.971 48.264 79.5906 48.9868 79.9447C49.9013 80.3873 50.6979 80.0627 51.4502 79.5021C51.6124 79.3841 51.6567 79.2808 51.5829 79.0743C51.2732 78.1744 51.1994 77.2449 51.3912 76.3155C51.8337 74.0584 52.3204 71.816 52.7925 69.5588C53.412 66.623 54.0315 63.6725 54.651 60.7367C55.0935 58.6713 55.4771 56.5912 55.9933 54.5406C56.6128 52.0621 57.9699 50.0705 60.3005 48.9051C62.5573 47.7691 64.7846 47.7248 66.894 49.3624C66.894 49.3624 66.9087 49.3624 66.9382 49.3476C68.6935 47.7986 70.7586 47.3708 73.0154 47.6511C73.3252 47.6953 73.5907 47.6658 73.8857 47.4741C75.8918 46.1463 78.7534 45.984 80.7595 47.5183C80.848 47.5921 81.0102 47.6216 81.1283 47.5921C84.9929 46.9282 87.9873 43.6236 88.297 39.6994C88.356 39.0355 88.1938 38.4454 87.6627 38.0028C87.0285 37.4865 86.3057 37.4127 85.5534 37.6045C84.3586 37.8996 83.4588 38.652 82.6918 39.5666C81.969 40.4223 81.2463 41.2779 80.3022 41.8975C78.0749 43.3433 75.6558 43.8892 73.045 43.2843C72.3074 43.1073 71.6141 42.6942 70.8471 42.3696C70.7881 42.4139 70.6701 42.5172 70.5374 42.6204C69.7851 43.2843 68.9738 43.8449 68.0593 44.2432C66.422 44.9661 64.7551 45.1579 63.1031 44.3465C62.5278 44.0662 62.0263 43.6384 61.4658 43.2695C61.4363 43.299 61.3773 43.3728 61.333 43.4466C60.5217 44.612 59.5925 45.63 58.3682 46.3676C57.0701 47.1495 55.6836 47.5183 54.1643 47.1347C53.4267 46.943 52.7925 46.5741 52.2319 46.0873C51.8927 46.4266 51.5977 46.7659 51.2436 47.0462C49.5621 48.374 47.7183 48.8313 45.6827 47.9166C45.5794 47.8724 45.3877 47.9166 45.2992 47.9756C44.3994 48.6395 43.4406 49.1706 42.3786 49.5247C40.4315 50.1738 38.4844 50.2476 36.5521 49.4214C36.3308 49.3329 36.2571 49.4509 36.1391 49.5542C33.9413 51.531 31.4189 52.5932 28.4246 52.2392C26.6987 52.0326 25.2679 51.2507 24.2207 49.8197C23.0849 48.2559 22.8489 46.4561 23.0111 44.5973C23.1586 42.7827 23.4979 40.9829 24.0436 39.2421C24.9582 36.2915 26.3152 33.6656 29.0588 31.9985C28.7491 31.6739 28.4246 31.3641 28.159 31.0248C27.038 29.5348 26.8463 27.853 27.1413 26.0827C27.4363 24.3419 28.2328 22.8518 29.4276 21.5831C30.7846 20.1374 32.3925 19.1047 34.4428 19.0014C35.7261 18.9276 36.8619 19.2965 37.9239 20.0193C37.4666 20.6832 37.0241 21.3176 36.5669 21.9667C36.4636 21.9077 36.3751 21.8634 36.2866 21.8044C35.4606 21.3323 34.5903 21.2438 33.6905 21.5241C31.2124 22.2765 29.1916 25.227 29.3981 27.794C29.5308 29.402 30.4749 30.4495 32.0532 30.7003C32.7022 30.8035 33.366 30.8478 34.0593 30.9068C34.0888 31.6444 34.133 32.3673 34.1625 33.105C33.8233 33.1492 33.543 33.1787 33.248 33.2082C32.1269 33.341 31.0502 33.5475 30.0766 34.1671C28.6753 35.0671 27.7755 36.38 27.0823 37.8553C26.271 39.5814 25.8432 41.4255 25.5482 43.299C25.3859 44.3612 25.2384 45.4382 25.4007 46.5299C25.622 48.1527 26.6397 49.3771 28.159 49.7755C29.0146 49.9968 29.8849 49.982 30.7551 49.7902C32.1417 49.4804 33.3512 48.8313 34.3543 47.9166C34.015 47.2528 33.6462 46.6627 33.3955 46.0135C32.8645 44.6268 32.8497 43.181 33.0267 41.7205C33.248 39.9207 33.5872 38.1356 34.1625 36.4243C34.8115 34.477 35.6966 32.6476 37.1569 31.1724C37.7174 30.6118 38.3812 30.1397 38.9712 29.6381C38.7352 29.402 38.4402 29.1365 38.2042 28.8414C36.9651 27.2776 36.7586 25.4778 37.1274 23.5895C37.5551 21.3913 38.7352 19.6358 40.461 18.2638C41.9656 17.0688 43.6619 16.4344 45.6237 16.759C46.4497 16.8918 47.1872 17.2311 47.8805 17.7179C47.4233 18.3818 46.9807 19.0162 46.553 19.6358C46.494 19.6358 46.4792 19.6358 46.4792 19.6358C46.376 19.5768 46.2727 19.5177 46.1695 19.4735C45.4172 19.0604 44.6354 18.9719 43.8094 19.1932C41.3313 19.8571 39.2662 22.6896 39.3695 25.286C39.4432 27.1891 40.4757 28.2808 42.3786 28.4726C42.9243 28.5316 43.4554 28.5759 44.0159 28.6349C44.0601 29.3725 44.0896 30.0954 44.1339 30.8183C43.6619 30.8773 43.2341 30.9363 42.7916 30.9806C41.6558 31.1133 40.5938 31.4527 39.6645 32.146C38.4402 33.0607 37.6289 34.2999 37.0094 35.6867C36.2571 37.3537 35.8293 39.124 35.5491 40.9386C35.3721 42.0893 35.2098 43.24 35.4016 44.4055C35.7113 46.2496 37.0831 47.5331 38.9269 47.6511C40.638 47.7544 42.1573 47.2233 43.5439 46.2791C43.7356 46.1463 43.7356 46.043 43.6619 45.8513C43.2194 44.8481 43.1308 43.8006 43.3521 42.7384C43.9421 39.8912 44.5469 37.0292 45.1517 34.1819C45.963 30.3757 46.7595 26.5695 47.5855 22.7781C47.9985 20.8307 48.8098 19.0899 50.4176 17.8359C51.7157 16.818 53.176 16.3902 54.828 16.6262C55.5508 16.7295 56.2146 16.995 56.8489 17.4081C57.8814 12.643 58.9139 7.92214 59.9465 3.15703C55.3738 2.30138 50.8011 2.08009 46.199 2.53742C41.5968 2.99475 37.1569 4.0717 32.8792 5.79776C28.5721 7.52382 24.6042 9.82524 20.946 12.6873C17.3026 15.5345 14.146 18.8391 11.4024 22.6453C13.2758 22.2765 14.7803 22.6601 15.7096 24.3861C15.8128 24.2386 15.8718 24.1501 15.9456 24.0616C16.9929 22.6453 18.2467 21.4946 19.9725 20.9783C22.2146 20.2996 24.2207 21.3618 24.9139 23.5895C25.3269 24.932 25.2827 26.2892 25.0024 27.6317C24.1174 31.8805 23.2029 36.1292 22.2883 40.3633C21.4623 44.2285 20.6215 48.0789 19.7955 51.9441C19.6332 52.6817 19.4857 53.4194 19.3235 54.1718C18.5269 53.9947 17.7599 53.8325 17.0076 53.6702C17.7894 50.041 18.5564 46.4709 19.3235 42.9007C20.0167 39.6846 20.7248 36.4538 21.4033 33.2377C21.8753 31.0396 22.3473 28.8414 22.7603 26.6285C22.9226 25.7581 22.9226 24.8582 22.5538 24.0173C22.2293 23.3092 21.6688 23.0289 20.9018 23.1912C20.0758 23.3682 19.3972 23.8108 18.8072 24.3861C17.3912 25.7581 16.5799 27.4694 16.1669 29.3725C15.3113 33.223 14.5148 37.0882 13.6888 40.9534C12.7447 45.3792 11.7859 49.805 10.8272 54.2308C10.7239 54.7176 10.6059 55.1897 10.5026 55.6913C9.70612 55.5143 8.95384 55.352 8.18681 55.1897C8.89484 51.8851 9.58812 48.6248 10.2961 45.3497C10.9894 42.1188 11.6974 38.888 12.376 35.6424C12.8775 33.2525 13.3643 30.8478 13.8068 28.4431C13.9543 27.6022 13.9543 26.7318 13.7183 25.8761C13.4823 25.0057 13.0545 24.6812 12.199 24.9172C10.5026 25.3893 8.90959 26.0384 8.15731 27.8382C8.09831 27.971 8.00981 28.1038 7.93605 28.2366C5.31046 33.4 3.58464 38.8142 2.80287 44.5235C2.50785 46.6774 2.36035 48.8313 2.3456 50.9999C2.33085 53.3014 2.50785 55.588 2.83237 57.8599C2.96512 58.8336 3.15688 59.8073 3.31913 60.781C3.43714 60.781 3.52564 60.7957 3.59939 60.781C5.01545 60.4712 6.4315 60.1466 7.84755 59.8368C10.9894 59.1582 14.1313 58.45 17.2731 57.7862C21.3 56.9305 25.3122 56.1044 29.3391 55.2782C30.7404 54.9832 32.0974 55.1454 33.3512 55.8978C34.7378 56.724 35.5786 57.978 36.1243 59.468C37.0241 61.9022 37.0684 64.4249 36.7734 66.9476C36.5669 68.7474 36.2276 70.562 35.8293 72.3323C35.0623 75.7549 33.8823 79.0448 32.0679 82.0691C30.9321 83.9722 29.5751 85.6982 27.746 86.9965C26.7577 87.7046 25.6957 88.2209 24.4419 88.2504C23.4389 88.28 22.5833 87.9554 21.9786 87.1292C21.241 86.1261 21.241 84.9901 21.4771 83.8541C22.0818 81.0511 22.7013 78.2481 23.3209 75.4599C24.1912 71.4914 25.0762 67.5229 25.9612 63.5692C26.3595 61.7841 26.7577 60.0138 27.1855 58.1255ZM82.4558 49.864C82.4853 49.9525 82.5148 50.0853 82.5738 50.2033C82.9868 51.3393 83.1048 52.5195 83.0901 53.6997C83.0753 55.0717 82.8688 56.4289 82.5591 57.7714C81.9543 60.5154 81.1577 63.1856 79.8892 65.6936C78.8567 67.7442 77.5291 69.5588 75.6853 70.9751C74.107 72.1848 72.3222 72.9667 70.3899 73.3355C69.6228 73.483 69.3721 73.7928 69.2246 74.5305C68.5165 78.0268 67.72 81.5232 66.953 85.0049C66.2745 88.1472 65.5812 91.2895 64.9026 94.4318C64.6666 95.5383 64.4159 96.6447 64.1651 97.7659C66.0237 97.4856 71.7322 95.1252 74.7855 93.3991C78.1339 91.5108 81.2315 89.2684 84.0489 86.6424C86.6597 84.2082 90.9964 79.1038 91.4536 77.8793C85.1699 79.4874 78.8862 81.0806 72.5877 82.6887C72.3959 81.9215 72.2042 81.1692 72.0124 80.402C72.0862 80.3725 72.1452 80.343 72.2189 80.3283C74.8003 79.6644 77.3964 79.0153 79.9777 78.3514C84.3291 77.2449 88.6805 76.1385 93.0319 75.0173C93.2089 74.973 93.4007 74.8108 93.4892 74.6632C93.8137 74.1174 94.1087 73.542 94.389 72.9667C97.2948 67.2279 98.9764 61.135 99.4927 54.7324C99.6844 52.4014 99.6992 50.0558 99.5222 47.7101C99.3452 45.3497 99.0354 43.0187 98.5339 40.7026C97.4424 35.6719 95.5985 30.9363 93.0024 26.4958C91.3356 23.6485 89.4033 20.993 87.1907 18.5293C85.5387 16.6852 83.7686 14.9592 81.8363 13.4101C80.9955 12.7315 80.0662 12.4365 78.9747 12.8053C76.5851 13.6462 74.6528 16.5082 74.8593 19.0309C74.933 19.9898 75.287 20.8307 76.1278 21.4061C76.6736 21.7897 77.3079 21.9519 77.9569 21.9962C78.4732 22.0405 78.9894 22.0847 79.5057 22.129C79.5352 22.8961 79.5794 23.6042 79.6089 24.3419C79.2549 24.3861 78.9452 24.4156 78.6354 24.4599C77.6914 24.5779 76.7473 24.7254 75.8918 25.1975C74.3725 26.0237 73.399 27.3367 72.6614 28.8414C71.8354 30.5085 71.3781 32.2936 71.0831 34.1229C70.8914 35.2883 70.6996 36.4686 70.8471 37.6635C71.1274 39.8027 72.6024 41.1599 74.7413 41.1894C76.8211 41.2042 78.5617 40.3633 80.0367 38.947C80.789 38.2241 81.4528 37.398 82.2493 36.7194C83.6211 35.5686 85.2141 34.9195 87.058 35.2441C88.6215 35.5244 89.7573 36.3948 90.3768 37.8701C90.7899 38.8437 90.7161 39.8469 90.5391 40.8649C89.8901 44.4645 87.943 47.1347 84.7421 48.8756C84.0341 49.2739 83.2376 49.5247 82.4558 49.864ZM62.3508 3.71763C62.3066 3.83565 62.2771 3.90942 62.2623 3.98318C61.8788 5.76825 61.4953 7.53857 61.1118 9.32365C60.4922 12.1857 59.858 15.0329 59.2384 17.895C58.3682 21.9224 57.4979 25.9499 56.6276 29.9774C56.0081 32.8542 55.3886 35.7457 54.7543 38.6225C54.3708 40.3485 53.9282 42.0746 53.53 43.8006C53.5005 43.8892 53.53 44.0367 53.589 44.1104C54.0315 44.6563 54.592 44.9661 55.3 44.9661C56.1113 44.9661 56.8194 44.6415 57.4536 44.1842C58.5599 43.4023 59.2974 42.2811 60.0202 41.1747C60.0645 41.1009 60.035 40.9534 60.0055 40.8501C59.3122 39.0208 59.1057 37.1324 59.2237 35.1998C59.3269 33.4148 59.4744 31.6149 59.6515 29.8446C59.8285 28.2071 60.0055 26.5548 60.3152 24.932C60.7577 22.542 61.274 20.1816 61.8345 17.8212C62.2181 16.2131 62.6753 14.6051 63.4866 13.1446C64.1209 12.0086 64.8879 11.0055 66.0679 10.3711C67.2775 9.72197 68.605 9.85474 69.4901 10.7399C70.4046 11.6546 70.6111 12.82 70.4636 14.0445C70.2423 15.7558 69.9473 17.4671 69.6671 19.1784C69.0181 23.1026 68.192 26.9826 67.13 30.8183C66.3187 33.7393 65.4042 36.6161 63.9439 39.3011C63.5899 39.9354 63.2358 40.5698 62.8671 41.2042C63.4276 41.927 64.0766 42.4729 65.0059 42.5319C66.7907 42.6647 68.074 41.6763 69.2983 40.5846C68.6788 39.4634 68.3985 38.2979 68.3985 37.0734C68.3985 34.713 68.8706 32.4263 69.5638 30.1839C70.1391 28.2956 70.9651 26.5253 72.3074 25.0647C72.9417 24.3714 73.7087 23.796 74.4167 23.1764C74.1955 22.9404 73.8857 22.6748 73.635 22.3503C72.5582 20.9635 72.2779 19.3702 72.5287 17.6589C72.986 14.5608 74.7118 12.3332 77.4406 10.8579C77.6176 10.7547 77.8094 10.6809 78.0306 10.5924C73.1925 7.34679 67.9855 5.07488 62.3508 3.71763ZM34.605 64.5872C34.5313 63.7758 34.5018 62.9644 34.3838 62.153C34.2068 60.9285 33.8528 59.7483 33.0562 58.7451C32.2745 57.7567 31.2272 57.3878 29.9881 57.5796C29.7964 57.6091 29.6931 57.6977 29.6489 57.9042C29.5751 58.332 29.4718 58.7451 29.3686 59.1582C28.4541 63.2889 27.5248 67.4049 26.625 71.5357C25.7695 75.4156 24.8992 79.3103 24.0584 83.205C23.9109 83.8837 23.8076 84.577 23.7486 85.2704C23.7044 85.7425 23.9994 85.949 24.4567 85.89C24.6189 85.8753 24.7812 85.8458 24.9287 85.8015C25.8137 85.5359 26.5365 85.0196 27.2003 84.4C29.1916 82.5707 30.5044 80.2692 31.5664 77.8203C32.5547 75.5336 33.248 73.1585 33.7643 70.7095C34.2068 68.6884 34.546 66.6673 34.605 64.5872ZM65.5369 55.2045C64.5781 56.3847 63.4866 57.4026 62.041 57.9484C60.5955 58.4943 59.1204 58.5091 57.6011 58.273C57.5569 58.4353 57.5126 58.5681 57.4979 58.7008C56.5981 62.9644 55.6983 67.2426 54.7985 71.5062C54.415 73.3502 53.9872 75.1796 53.6922 77.0384C53.471 78.3957 54.1053 79.5759 55.5803 79.8119C56.5391 79.9742 57.4241 79.6939 58.2354 79.1776C59.7105 78.2481 60.625 76.8909 61.1118 75.2681C61.5985 73.5863 61.9525 71.8602 62.3213 70.1489C63.1916 66.1657 64.0471 62.1825 64.9026 58.214C65.1092 57.2256 65.3304 56.2076 65.5369 55.2045ZM45.6679 43.6089C45.6679 45.4824 46.8922 46.4119 48.441 45.9693C49.7243 45.6005 50.4914 44.6563 51.0666 43.5203C51.6272 42.3991 51.7894 41.1747 52.0402 39.9797C52.7187 36.8669 53.3825 33.7393 54.061 30.6118C54.7395 27.4842 55.418 24.3419 56.0966 21.2143C56.3473 20.0636 55.8311 19.3112 54.6953 19.0457C53.6922 18.8244 52.8072 19.0899 52.0107 19.6948C50.9486 20.4914 50.3734 21.5979 50.0931 22.8518C49.2966 26.4367 48.5443 30.0512 47.7773 33.6508C47.2167 36.2325 46.671 38.829 46.1252 41.4107C45.9335 42.2369 45.7712 43.0483 45.6679 43.6089ZM70.0063 71.0193C72.1894 70.5177 74.048 69.5441 75.5378 67.9213C76.8948 66.446 77.8241 64.7052 78.5617 62.8611C79.5204 60.4417 80.1842 57.9485 80.5677 55.3815C80.7595 54.1423 80.8037 52.903 80.5087 51.6638C80.2727 50.6754 79.8892 49.7755 78.9452 49.2444C77.7504 48.5658 75.8623 48.787 74.874 49.7312C74.7118 49.8787 74.5495 50.1 74.5053 50.3066C73.9742 52.6522 73.4727 54.9979 72.9565 57.3436C72.1747 60.958 71.3781 64.5724 70.5964 68.1868C70.4046 69.1162 70.2128 70.0309 70.0063 71.0193ZM46.9955 69.4113C47.025 69.367 47.0397 69.3523 47.0545 69.3228C47.9838 67.4049 48.5886 65.369 49.0901 63.3037C49.5621 61.4006 50.0046 59.4975 49.9161 57.5354C49.8866 56.6945 49.7538 55.8683 49.3556 55.1159C48.8983 54.2308 48.0575 53.7734 47.1577 53.8767C45.6089 54.0685 44.1781 55.3372 43.8389 56.8715C43.2636 59.4827 42.7178 62.094 42.1573 64.6904C42.0098 65.3986 41.8476 66.1067 41.7001 66.8296C44.1191 66.387 45.9777 67.0213 46.9955 69.4113ZM61.7755 38.1946C61.805 38.2094 61.8493 38.2241 61.8788 38.2241C62.2918 37.3242 62.7343 36.4538 63.0883 35.5391C64.5486 31.851 65.5369 28.0153 66.304 24.1353C66.953 20.9045 67.484 17.6442 68.0298 14.3986C68.1183 13.897 68.1035 13.3511 68.0445 12.8495C67.9708 12.3184 67.661 12.2152 67.189 12.4807C67.012 12.584 66.835 12.702 66.6875 12.8495C65.9499 13.5134 65.4927 14.3691 65.1387 15.269C64.3864 17.2163 63.8849 19.2227 63.4571 21.2586C63.0883 22.9846 62.7786 24.7254 62.4983 26.4662C62.2771 27.8235 62.1296 29.1807 61.982 30.5527C61.8493 31.7625 61.746 32.9869 61.6575 34.1967C61.5543 35.5391 61.51 36.8669 61.7755 38.1946ZM65.3157 51.236C65.1092 51.0885 64.9322 50.9409 64.7256 50.8377C64.0619 50.4836 63.3686 50.4541 62.6606 50.6016C60.8167 50.9852 59.5925 52.1654 58.7664 53.803C58.4272 54.4668 58.2207 55.1749 58.1026 56.0159C58.7074 56.0159 59.2827 56.0454 59.8432 56.0159C60.8463 55.9421 61.746 55.6028 62.4983 54.9242C63.6636 53.8915 64.3864 52.5195 65.3157 51.236ZM40.107 74.2206C40.4167 74.1764 40.6528 74.1321 40.8888 74.0879C42.2458 73.8223 43.5439 73.4092 44.6354 72.5093C44.7092 72.4503 44.7977 72.3618 44.8124 72.2733C44.9304 71.5799 44.9452 70.8865 44.7239 70.2079C44.5174 69.6031 44.1044 69.2195 43.4554 69.1015C42.6293 68.9539 41.8918 69.2195 41.1985 69.6178C41.1248 69.6621 41.0658 69.7948 41.0363 69.8981C40.874 70.621 40.7118 71.3439 40.5643 72.0815C40.4167 72.7749 40.2692 73.4683 40.107 74.2206Z" fill="white"/>
</svg>
